/* XPM */
static char * close_pressed_xpm[] = {
"20 25 110 2",
"  	c None",
". 	c #27241F",
"+ 	c #43403B",
"@ 	c #312E29",
"# 	c #302D28",
"$ 	c #363430",
"% 	c #918E8A",
"& 	c #BBBAB7",
"* 	c #CECECC",
"= 	c #302E2A",
"- 	c #A3A19E",
"; 	c #E2E2E2",
"> 	c #E6E6E6",
", 	c #E0E0E0",
"' 	c #A3A19D",
") 	c #2F2C27",
"! 	c #312F2B",
"~ 	c #C2C1BF",
"{ 	c #E1E0E0",
"] 	c #BEBDBB",
"^ 	c #A09E9A",
"/ 	c #9B9894",
"( 	c #BFBEBB",
"_ 	c #322F2A",
": 	c #ACAAA7",
"< 	c #DEDEDD",
"[ 	c #A6A4A0",
"} 	c #989590",
"| 	c #A6A49F",
"1 	c #DDDDDD",
"2 	c #AAA8A5",
"3 	c #2E2B26",
"4 	c #3C3A36",
"5 	c #E4E4E4",
"6 	c #A4A29E",
"7 	c #CDCCCB",
"8 	c #D2D1D0",
"9 	c #9A9894",
"0 	c #94918C",
"a 	c #A4A29F",
"b 	c #3B3935",
"c 	c #B0AEAB",
"d 	c #C6C5C3",
"e 	c #918E89",
"f 	c #D8D7D6",
"g 	c #989591",
"h 	c #DDDDDC",
"i 	c #A9A6A3",
"j 	c #8E8C87",
"k 	c #96938E",
"l 	c #E7E7E7",
"m 	c #D8D8D7",
"n 	c #AAA8A4",
"o 	c #DCDBDB",
"p 	c #2D2A25",
"q 	c #9B9893",
"r 	c #8B8882",
"s 	c #928F8A",
"t 	c #D8D8D6",
"u 	c #E7E7E6",
"v 	c #2C2924",
"w 	c #87847E",
"x 	c #8E8B87",
"y 	c #D7D7D6",
"z 	c #DCDCDB",
"A 	c #A2A09B",
"B 	c #83807A",
"C 	c #8B8883",
"D 	c #D6D5D4",
"E 	c #D7D6D5",
"F 	c #A3A19C",
"G 	c #DBDADA",
"H 	c #2B2823",
"I 	c #AEACA9",
"J 	c #C0BEBC",
"K 	c #807C76",
"L 	c #CFCECC",
"M 	c #D6D5D3",
"N 	c #88857F",
"O 	c #BFBEBC",
"P 	c #3A3834",
"Q 	c #E4E3E3",
"R 	c #928F8B",
"S 	c #C7C6C5",
"T 	c #CECDCC",
"U 	c #85827C",
"V 	c #7C7973",
"W 	c #93908C",
"X 	c #393733",
"Y 	c #A8A6A2",
"Z 	c #DADAD9",
"` 	c #8D8A84",
" .	c #79756F",
"..	c #8D8A85",
"+.	c #A7A5A2",
"@.	c #2A2722",
"#.	c #2B2925",
"$.	c #E0E0DF",
"%.	c #ABA9A6",
"&.	c #7D7A74",
"*.	c #74706A",
"=.	c #E1E1E0",
"-.	c #9E9C98",
";.	c #E1E1E1",
">.	c #DFDEDE",
",.	c #292621",
"'.	c #898681",
").	c #B7B6B3",
"!.	c #CCCBCA",
"~.	c #282520",
". . . . . . . . . . . . . . . . . . . . ",
"+ + + + + + + + + + + + + + + + + + + + ",
"@ @ @ @ @ @ @ @ @ @ @ @ @ @ @ @ @ @ @ @ ",
"@ @ @ @ @ @ @ @ @ @ @ @ @ @ @ @ @ @ @ @ ",
"# # # # # # # # # # # # # # # # # # # # ",
"# # # # # # $ % & * * & % $ # # # # # # ",
"# # # # = - ; > > , , > > ; ' = # # # # ",
") ) ) ! ~ > { ] ^ / / ^ ( ; > ~ _ ) ) ) ",
") ) ) : > < [ } } } } } } | 1 > 2 ) ) ) ",
"3 3 4 5 5 6 7 8 9 0 0 9 8 7 a 5 5 b 3 3 ",
"3 3 c > d e 8 > f g g f > 8 e d > c 3 3 ",
"3 3 h > i j k f l m m l f k j n > o 3 3 ",
"p p > > q r r s t u u t s r r q > > p p ",
"v v > > g w w x y l l y x w w g > > v v ",
"v v z > A B C D u E E u D C B F > G v v ",
"H H I > J K L u M N N M u L K O > I H H ",
"H H P 5 Q R S T U V V U T S W 5 5 X H H ",
"H H H Y > Z `  . . . . . ...Z > +.H H H ",
"@.@.@.#.O > $.%.&.*.*.&.: =.> O v @.@.@.",
"@.@.@.@.H -.;.> > >.>.> > , -.H @.@.@.@.",
",.,.,.,.,.,.= '.).!.!.).'.= ,.,.,.,.,.,.",
",.,.,.,.,.,.,.,.,.,.,.,.,.,.,.,.,.,.,.,.",
",.,.,.,.,.,.,.,.,.,.,.,.,.,.,.,.,.,.,.,.",
"~.~.~.~.~.~.~.~.~.~.~.~.~.~.~.~.~.~.~.~.",
". . . . . . . . . . . . . . . . . . . . "};
