/* XPM */
static char * close_inactive_xpm[] = {
"20 25 26 1",
" 	c None",
".	c #27241F",
"+	c #3D3A35",
"@	c #312E29",
"#	c #302D28",
"$	c #2F2C27",
"%	c #2E2B26",
"&	c #858381",
"*	c #8A8987",
"=	c #302E2A",
"-	c #8A8887",
";	c #9B9B9B",
">	c #8E8D8C",
",	c #8F8F8D",
"'	c #2D2A25",
")	c #2F2D29",
"!	c #8F8E8D",
"~	c #2C2924",
"{	c #2E2C28",
"]	c #8E8D8B",
"^	c #2B2823",
"/	c #898886",
"(	c #81807D",
"_	c #2A2722",
":	c #292621",
"<	c #282520",
"....................",
"++++++++++++++++++++",
"@@@@@@@@@@@@@@@@@@@@",
"@@@@@@@@@@@@@@@@@@@@",
"####################",
"####################",
"####################",
"$$$$$$$$$$$$$$$$$$$$",
"$$$$$$$$$$$$$$$$$$$$",
"%%%%%%&*=%%=*&%%%%%%",
"%%%%%%-;>==>;-%%%%%%",
"%%%%%%=>;,,;>=%%%%%%",
"''''''')!;;!)'''''''",
"~~~~~~~)!;;!)~~~~~~~",
"~~~~~~{];!!;]{~~~~~~",
"^^^^^^/;]{{];/^^^^^^",
"^^^^^^(/{^^{/(^^^^^^",
"^^^^^^^^^^^^^^^^^^^^",
"____________________",
"____________________",
"::::::::::::::::::::",
"::::::::::::::::::::",
"::::::::::::::::::::",
"<<<<<<<<<<<<<<<<<<<<",
"...................."};
