/* XPM */
static char * close_prelight_xpm[] = {
"20 25 75 1",
" 	c None",
".	c #27241F",
"+	c #43403B",
"@	c #312E29",
"#	c #302D28",
"$	c #363430",
"%	c #918E8A",
"&	c #BBBAB7",
"*	c #CECECC",
"=	c #302E2A",
"-	c #A3A19E",
";	c #E2E2E2",
">	c #E6E6E6",
",	c #DCDCDB",
"'	c #A3A19D",
")	c #2F2C27",
"!	c #312F2B",
"~	c #C2C1BF",
"{	c #DEDEDD",
"]	c #9A9793",
"^	c #33312D",
"/	c #35322D",
"(	c #9A9894",
"_	c #DFDFDF",
":	c #322F2A",
"<	c #ACAAA7",
"[	c #D5D5D4",
"}	c #3D3B37",
"|	c #3C3A36",
"1	c #D6D6D5",
"2	c #AAA8A5",
"3	c #2E2B26",
"4	c #E4E4E4",
"5	c #E1E1E1",
"6	c #BAB9B6",
"7	c #C3C2C0",
"8	c #34322E",
"9	c #3E3C38",
"0	c #3B3935",
"a	c #B0AEAB",
"b	c #ADABA8",
"c	c #CDCCCA",
"d	c #AEACA9",
"e	c #DDDDDC",
"f	c #73706B",
"g	c #CECDCC",
"h	c #7E7B76",
"i	c #DCDBDB",
"j	c #2D2A25",
"k	c #2C2924",
"l	c #3A3834",
"m	c #32302C",
"n	c #6B6863",
"o	c #CCCBCA",
"p	c #797672",
"q	c #DBDADA",
"r	c #2B2823",
"s	c #B9B7B5",
"t	c #393733",
"u	c #A8A6A2",
"v	c #A7A5A2",
"w	c #2A2722",
"x	c #2B2925",
"y	c #BFBEBC",
"z	c #DFDFDE",
"A	c #96938F",
"B	c #2F2D29",
"C	c #979591",
"D	c #9E9C98",
"E	c #DBDBDA",
"F	c #E0E0E0",
"G	c #292621",
"H	c #898681",
"I	c #B7B6B3",
"J	c #282520",
"....................",
"++++++++++++++++++++",
"@@@@@@@@@@@@@@@@@@@@",
"@@@@@@@@@@@@@@@@@@@@",
"####################",
"######$%&**&%$######",
"####=-;>>,,>>;'=####",
")))!~>{]^))/(_>~:)))",
")))<>[}))))))|1>2)))",
"33|45}678338769;4033",
"33a>b37>c^^c>73d>a33",
"33e>f3^c>gg>c^3h>i33",
"jj>>0jj^g>>g^jj0>>jj",
"kk>>lkkmg>>gmkkl>>kk",
"kk,>nkmo>gg>omkp>qkk",
"rrd><r~>o!!o>~r<>drr",
"rrl450s~!rr!~s};4trr",
"rrru>[trrrrrrl[>vrrr",
"wwwxy>zABwwBC_>ykwww",
"wwwwrD5>>EE>>FDrwwww",
"GGGGGG=HIooIH=GGGGGG",
"GGGGGGGGGGGGGGGGGGGG",
"GGGGGGGGGGGGGGGGGGGG",
"JJJJJJJJJJJJJJJJJJJJ",
"...................."};
