/* XPM */
static char * hide_active_xpm[] = {
"20 25 18 1",
" 	c None",
".	c #27241F",
"+	c #46433E",
"@	c #312E29",
"#	c #302D28",
"$	c #2F2C27",
"%	c #2E2B26",
"&	c #2D2A25",
"*	c #2C2924",
"=	c #B9B8B5",
"-	c #E6E6E6",
";	c #BEBCBA",
">	c #2B2823",
",	c #B9B7B5",
"'	c #B5B3B0",
")	c #2A2722",
"!	c #292621",
"~	c #282520",
"....................",
"++++++++++++++++++++",
"@@@@@@@@@@@@@@@@@@@@",
"@@@@@@@@@@@@@@@@@@@@",
"####################",
"####################",
"####################",
"$$$$$$$$$$$$$$$$$$$$",
"$$$$$$$$$$$$$$$$$$$$",
"%%%%%%%%%%%%%%%%%%%%",
"%%%%%%%%%%%%%%%%%%%%",
"%%%%%%%%%%%%%%%%%%%%",
"&&&&&&&&&&&&&&&&&&&&",
"********************",
"******=------;******",
">>>>>>,------'>>>>>>",
">>>>>>>>>>>>>>>>>>>>",
">>>>>>>>>>>>>>>>>>>>",
"))))))))))))))))))))",
"))))))))))))))))))))",
"!!!!!!!!!!!!!!!!!!!!",
"!!!!!!!!!!!!!!!!!!!!",
"!!!!!!!!!!!!!!!!!!!!",
"~~~~~~~~~~~~~~~~~~~~",
"...................."};
