/* XPM */
static char * hide_pressed_xpm[] = {
"20 25 94 2",
"  	c None",
". 	c #27241F",
"+ 	c #43403B",
"@ 	c #312E29",
"# 	c #302D28",
"$ 	c #363430",
"% 	c #918E8A",
"& 	c #BBBAB7",
"* 	c #CECECC",
"= 	c #302E2A",
"- 	c #A3A19E",
"; 	c #E2E2E2",
"> 	c #E6E6E6",
", 	c #E0E0E0",
"' 	c #A3A19D",
") 	c #2F2C27",
"! 	c #312F2B",
"~ 	c #C2C1BF",
"{ 	c #E1E0E0",
"] 	c #BEBDBB",
"^ 	c #A09E9A",
"/ 	c #9B9894",
"( 	c #BFBEBB",
"_ 	c #322F2A",
": 	c #ACAAA7",
"< 	c #DEDEDD",
"[ 	c #A6A4A0",
"} 	c #989590",
"| 	c #A6A49F",
"1 	c #DDDDDD",
"2 	c #AAA8A5",
"3 	c #2E2B26",
"4 	c #3C3A36",
"5 	c #E4E4E4",
"6 	c #A4A29E",
"7 	c #94918C",
"8 	c #A4A29F",
"9 	c #3B3935",
"0 	c #B0AEAB",
"a 	c #C6C5C3",
"b 	c #918E89",
"c 	c #DDDDDC",
"d 	c #A9A6A3",
"e 	c #8E8C87",
"f 	c #AAA8A4",
"g 	c #DCDBDB",
"h 	c #2D2A25",
"i 	c #9B9893",
"j 	c #8B8882",
"k 	c #2C2924",
"l 	c #989591",
"m 	c #87847E",
"n 	c #DCDCDB",
"o 	c #A2A09B",
"p 	c #83807A",
"q 	c #C9C9C6",
"r 	c #E7E7E6",
"s 	c #CDCBC9",
"t 	c #A3A19C",
"u 	c #DBDADA",
"v 	c #2B2823",
"w 	c #AEACA9",
"x 	c #C0BEBC",
"y 	c #807C76",
"z 	c #C9C7C5",
"A 	c #C6C5C2",
"B 	c #BFBEBC",
"C 	c #3A3834",
"D 	c #E4E3E3",
"E 	c #928F8B",
"F 	c #7C7973",
"G 	c #93908C",
"H 	c #393733",
"I 	c #A8A6A2",
"J 	c #DADAD9",
"K 	c #8D8A84",
"L 	c #79756F",
"M 	c #8D8A85",
"N 	c #A7A5A2",
"O 	c #2A2722",
"P 	c #2B2925",
"Q 	c #E0E0DF",
"R 	c #ABA9A6",
"S 	c #7D7A74",
"T 	c #74706A",
"U 	c #E1E1E0",
"V 	c #9E9C98",
"W 	c #E1E1E1",
"X 	c #DFDEDE",
"Y 	c #292621",
"Z 	c #898681",
"` 	c #B7B6B3",
" .	c #CCCBCA",
"..	c #282520",
". . . . . . . . . . . . . . . . . . . . ",
"+ + + + + + + + + + + + + + + + + + + + ",
"@ @ @ @ @ @ @ @ @ @ @ @ @ @ @ @ @ @ @ @ ",
"@ @ @ @ @ @ @ @ @ @ @ @ @ @ @ @ @ @ @ @ ",
"# # # # # # # # # # # # # # # # # # # # ",
"# # # # # # $ % & * * & % $ # # # # # # ",
"# # # # = - ; > > , , > > ; ' = # # # # ",
") ) ) ! ~ > { ] ^ / / ^ ( ; > ~ _ ) ) ) ",
") ) ) : > < [ } } } } } } | 1 > 2 ) ) ) ",
"3 3 4 5 5 6 7 7 7 7 7 7 7 7 8 5 5 9 3 3 ",
"3 3 0 > a b b b b b b b b b b a > 0 3 3 ",
"3 3 c > d e e e e e e e e e e f > g 3 3 ",
"h h > > i j j j j j j j j j j i > > h h ",
"k k > > l m m m m m m m m m m l > > k k ",
"k k n > o p q r r r r r r s p t > u k k ",
"v v w > x y z r r r r r r A y B > w v v ",
"v v C 5 D E F F F F F F F F G 5 5 H v v ",
"v v v I > J K L L L L L L M J > N v v v ",
"O O O P B > Q R S T T S : U > B k O O O ",
"O O O O v V W > > X X > > , V v O O O O ",
"Y Y Y Y Y Y = Z `  . .` Z = Y Y Y Y Y Y ",
"Y Y Y Y Y Y Y Y Y Y Y Y Y Y Y Y Y Y Y Y ",
"Y Y Y Y Y Y Y Y Y Y Y Y Y Y Y Y Y Y Y Y ",
"........................................",
". . . . . . . . . . . . . . . . . . . . "};
