/* XPM */
static char * maximize_inactive_xpm[] = {
"20 25 22 1",
" 	c None",
".	c #27241F",
"+	c #3D3A35",
"@	c #312E29",
"#	c #302D28",
"$	c #2F2C27",
"%	c #2E2B26",
"&	c #858381",
"*	c #9B9B9B",
"=	c #2D2A25",
"-	c #848380",
";	c #878684",
">	c #2C2924",
",	c #848280",
"'	c #82817E",
")	c #2B2823",
"!	c #999999",
"~	c #82807E",
"{	c #868583",
"]	c #2A2722",
"^	c #292621",
"/	c #282520",
"....................",
"++++++++++++++++++++",
"@@@@@@@@@@@@@@@@@@@@",
"@@@@@@@@@@@@@@@@@@@@",
"####################",
"####################",
"####################",
"$$$$$$$$$$$$$$$$$$$$",
"$$$$$$$$$$$$$$$$$$$$",
"%%%%%%%%%&&%%%%%%%%%",
"%%%%%%%%%**%%%%%%%%%",
"%%%%%%%%%**%%%%%%%%%",
"======-******;======",
">>>>>>,******'>>>>>>",
">>>>>>>>>**>>>>>>>>>",
")))))))))!*>))))))))",
")))))))))~{)))))))))",
"))))))))))))))))))))",
"]]]]]]]]]]]]]]]]]]]]",
"]]]]]]]]]]]]]]]]]]]]",
"^^^^^^^^^^^^^^^^^^^^",
"^^^^^^^^^^^^^^^^^^^^",
"^^^^^^^^^^^^^^^^^^^^",
"////////////////////",
"...................."};
