/* XPM */
static char * maximize_active_xpm[] = {
"20 25 21 1",
" 	c None",
".	c #27241F",
"+	c #43403B",
"@	c #312E29",
"#	c #302D28",
"$	c #2F2C27",
"%	c #2E2B26",
"&	c #BAB9B6",
"*	c #E6E6E6",
"=	c #2D2A25",
"-	c #BAB8B6",
";	c #BEBDBB",
">	c #2C2924",
",	c #B9B8B6",
"'	c #B5B4B1",
")	c #2B2823",
"!	c #E3E2E2",
"~	c #B4B2B0",
"{	c #2A2722",
"]	c #292621",
"^	c #282520",
"....................",
"++++++++++++++++++++",
"@@@@@@@@@@@@@@@@@@@@",
"@@@@@@@@@@@@@@@@@@@@",
"####################",
"####################",
"####################",
"$$$$$$$$$$$$$$$$$$$$",
"$$$$$$$$$$$$$$$$$$$$",
"%%%%%%%%%&&%%%%%%%%%",
"%%%%%%%%%**%%%%%%%%%",
"%%%%%%%%%**%%%%%%%%%",
"======-******;======",
">>>>>>,******'>>>>>>",
">>>>>>>>>**>>>>>>>>>",
")))))))))!*=))))))))",
")))))))))~;)))))))))",
"))))))))))))))))))))",
"{{{{{{{{{{{{{{{{{{{{",
"{{{{{{{{{{{{{{{{{{{{",
"]]]]]]]]]]]]]]]]]]]]",
"]]]]]]]]]]]]]]]]]]]]",
"]]]]]]]]]]]]]]]]]]]]",
"^^^^^^^^^^^^^^^^^^^^",
"...................."};
