/* XPM */
static char * maximize_pressed_xpm[] = {
"20 25 100 2",
"  	c None",
". 	c #27241F",
"+ 	c #43403B",
"@ 	c #312E29",
"# 	c #302D28",
"$ 	c #363430",
"% 	c #918E8A",
"& 	c #BBBAB7",
"* 	c #CECECC",
"= 	c #302E2A",
"- 	c #A3A19E",
"; 	c #E2E2E2",
"> 	c #E6E6E6",
", 	c #E0E0E0",
"' 	c #A3A19D",
") 	c #2F2C27",
"! 	c #312F2B",
"~ 	c #C2C1BF",
"{ 	c #E1E0E0",
"] 	c #BEBDBB",
"^ 	c #A09E9A",
"/ 	c #9B9894",
"( 	c #BFBEBB",
"_ 	c #322F2A",
": 	c #ACAAA7",
"< 	c #DEDEDD",
"[ 	c #A6A4A0",
"} 	c #989590",
"| 	c #A6A49F",
"1 	c #DDDDDD",
"2 	c #AAA8A5",
"3 	c #2E2B26",
"4 	c #3C3A36",
"5 	c #E4E4E4",
"6 	c #A4A29E",
"7 	c #94918C",
"8 	c #CDCCCB",
"9 	c #A4A29F",
"0 	c #3B3935",
"a 	c #B0AEAB",
"b 	c #C6C5C3",
"c 	c #918E89",
"d 	c #DDDDDC",
"e 	c #A9A6A3",
"f 	c #8E8C87",
"g 	c #E7E7E7",
"h 	c #AAA8A4",
"i 	c #DCDBDB",
"j 	c #2D2A25",
"k 	c #9B9893",
"l 	c #8B8882",
"m 	c #CCCBC8",
"n 	c #E7E7E6",
"o 	c #CECECB",
"p 	c #2C2924",
"q 	c #989591",
"r 	c #87847E",
"s 	c #CAC9C8",
"t 	c #C7C7C5",
"u 	c #DCDCDB",
"v 	c #A2A09B",
"w 	c #83807A",
"x 	c #A3A19C",
"y 	c #DBDADA",
"z 	c #2B2823",
"A 	c #AEACA9",
"B 	c #C0BEBC",
"C 	c #807C76",
"D 	c #E5E5E4",
"E 	c #827E78",
"F 	c #BFBEBC",
"G 	c #3A3834",
"H 	c #E4E3E3",
"I 	c #928F8B",
"J 	c #7C7973",
"K 	c #C4C2C1",
"L 	c #CBCAC9",
"M 	c #93908C",
"N 	c #393733",
"O 	c #A8A6A2",
"P 	c #DADAD9",
"Q 	c #8D8A84",
"R 	c #79756F",
"S 	c #8D8A85",
"T 	c #A7A5A2",
"U 	c #2A2722",
"V 	c #2B2925",
"W 	c #E0E0DF",
"X 	c #ABA9A6",
"Y 	c #7D7A74",
"Z 	c #74706A",
"` 	c #E1E1E0",
" .	c #9E9C98",
"..	c #E1E1E1",
"+.	c #DFDEDE",
"@.	c #292621",
"#.	c #898681",
"$.	c #B7B6B3",
"%.	c #CCCBCA",
"&.	c #282520",
". . . . . . . . . . . . . . . . . . . . ",
"+ + + + + + + + + + + + + + + + + + + + ",
"@ @ @ @ @ @ @ @ @ @ @ @ @ @ @ @ @ @ @ @ ",
"@ @ @ @ @ @ @ @ @ @ @ @ @ @ @ @ @ @ @ @ ",
"# # # # # # # # # # # # # # # # # # # # ",
"# # # # # # $ % & * * & % $ # # # # # # ",
"# # # # = - ; > > , , > > ; ' = # # # # ",
") ) ) ! ~ > { ] ^ / / ^ ( ; > ~ _ ) ) ) ",
") ) ) : > < [ } } } } } } | 1 > 2 ) ) ) ",
"3 3 4 5 5 6 7 7 7 8 8 7 7 7 9 5 5 0 3 3 ",
"3 3 a > b c c c c > > c c c c b > a 3 3 ",
"3 3 d > e f f f f g g f f f f h > i 3 3 ",
"j j > > k l m n n n n n n o l k > > j j ",
"p p > > q r s g g g g g g t r q > > p p ",
"p p u > v w w w w n n w w w w x > y p p ",
"z z A > B C C C C D n E C C C F > A z z ",
"z z G 5 H I J J J K L J J J M 5 5 N z z ",
"z z z O > P Q R R R R R R S P > T z z z ",
"U U U V F > W X Y Z Z Y : ` > F p U U U ",
"U U U U z  ...> > +.+.> > ,  .z U U U U ",
"@.@.@.@.@.@.= #.$.%.%.$.#.= @.@.@.@.@.@.",
"@.@.@.@.@.@.@.@.@.@.@.@.@.@.@.@.@.@.@.@.",
"@.@.@.@.@.@.@.@.@.@.@.@.@.@.@.@.@.@.@.@.",
"&.&.&.&.&.&.&.&.&.&.&.&.&.&.&.&.&.&.&.&.",
". . . . . . . . . . . . . . . . . . . . "};
