/* XPM */
static char * title_4_inactive_xpm[] = {
"8 25 13 1",
" 	c None",
".	c #27241F",
"+	c #3D3A35",
"@	c #312E29",
"#	c #302D28",
"$	c #2F2C27",
"%	c #2E2B26",
"&	c #2D2A25",
"*	c #2C2924",
"=	c #2B2823",
"-	c #2A2722",
";	c #292621",
">	c #282520",
"........",
"++++++++",
"@@@@@@@@",
"@@@@@@@@",
"########",
"########",
"########",
"$$$$$$$$",
"$$$$$$$$",
"%%%%%%%%",
"%%%%%%%%",
"%%%%%%%%",
"&&&&&&&&",
"********",
"********",
"========",
"========",
"========",
"--------",
"--------",
";;;;;;;;",
";;;;;;;;",
";;;;;;;;",
">>>>>>>>",
"........"};
