/* XPM */
static char * top_left_inactive_xpm[] = {
"6 25 15 1",
" 	c None",
".	c #27241F",
"+	c #3D3A35",
"@	c #3A3732",
"#	c #312E29",
"$	c #35322D",
"%	c #302D28",
"&	c #2F2C27",
"*	c #2E2B26",
"=	c #2D2A25",
"-	c #2C2924",
";	c #2B2823",
">	c #2A2722",
",	c #292621",
"'	c #282520",
"     .",
"   ..+",
"  .@@#",
" .$###",
" .$%%%",
".%%%%%",
".%%%%%",
".&&&&&",
".&&&&&",
".*****",
".*****",
".*****",
".=====",
".-----",
".-----",
".;;;;;",
".;;;;;",
".;;;;;",
".>>>>>",
".>>>>>",
".,,,,,",
".,,,,,",
".,,,,,",
".'''''",
"......"};
