/* XPM */
static char * close_active_xpm[] = {
"20 25 25 1",
" 	c None",
".	c #27241F",
"+	c #43403B",
"@	c #312E29",
"#	c #302D28",
"$	c #2F2C27",
"%	c #2E2B26",
"&	c #BAB9B6",
"*	c #C3C2C0",
"=	c #34322E",
"-	c #E6E6E6",
";	c #CDCCCA",
">	c #33312D",
",	c #CECDCC",
"'	c #2D2A25",
")	c #2C2924",
"!	c #32302C",
"~	c #CCCBCA",
"{	c #2B2823",
"]	c #C2C1BF",
"^	c #312F2B",
"/	c #B9B7B5",
"(	c #2A2722",
"_	c #292621",
":	c #282520",
"....................",
"++++++++++++++++++++",
"@@@@@@@@@@@@@@@@@@@@",
"@@@@@@@@@@@@@@@@@@@@",
"####################",
"####################",
"####################",
"$$$$$$$$$$$$$$$$$$$$",
"$$$$$$$$$$$$$$$$$$$$",
"%%%%%%&*=%%=*&%%%%%%",
"%%%%%%*-;>>;-*%%%%%%",
"%%%%%%>;-,,-;>%%%%%%",
"'''''''>,--,>'''''''",
")))))))!,--,!)))))))",
"))))))!~-,,-~!))))))",
"{{{{{{]-~^^~-]{{{{{{",
"{{{{{{/]^{{^]/{{{{{{",
"{{{{{{{{{{{{{{{{{{{{",
"((((((((((((((((((((",
"((((((((((((((((((((",
"____________________",
"____________________",
"____________________",
"::::::::::::::::::::",
"...................."};
