/* XPM */
static char * hide_prelight_xpm[] = {
"20 25 72 1",
" 	c None",
".	c #27241F",
"+	c #43403B",
"@	c #312E29",
"#	c #302D28",
"$	c #363430",
"%	c #918E8A",
"&	c #BBBAB7",
"*	c #CECECC",
"=	c #302E2A",
"-	c #A3A19E",
";	c #E2E2E2",
">	c #E6E6E6",
",	c #DCDCDB",
"'	c #A3A19D",
")	c #2F2C27",
"!	c #312F2B",
"~	c #C2C1BF",
"{	c #DEDEDD",
"]	c #9A9793",
"^	c #33312D",
"/	c #35322D",
"(	c #9A9894",
"_	c #DFDFDF",
":	c #322F2A",
"<	c #ACAAA7",
"[	c #D5D5D4",
"}	c #3D3B37",
"|	c #3C3A36",
"1	c #D6D6D5",
"2	c #AAA8A5",
"3	c #2E2B26",
"4	c #E4E4E4",
"5	c #E1E1E1",
"6	c #3E3C38",
"7	c #3B3935",
"8	c #B0AEAB",
"9	c #ADABA8",
"0	c #AEACA9",
"a	c #DDDDDC",
"b	c #6F6D68",
"c	c #787570",
"d	c #DCDBDB",
"e	c #2D2A25",
"f	c #2C2924",
"g	c #3A3834",
"h	c #686560",
"i	c #B9B8B5",
"j	c #BEBCBA",
"k	c #73706B",
"l	c #DBDADA",
"m	c #2B2823",
"n	c #B9B7B5",
"o	c #B5B3B0",
"p	c #393733",
"q	c #A8A6A2",
"r	c #A7A5A2",
"s	c #2A2722",
"t	c #2B2925",
"u	c #BFBEBC",
"v	c #DFDFDE",
"w	c #96938F",
"x	c #2F2D29",
"y	c #979591",
"z	c #9E9C98",
"A	c #DBDBDA",
"B	c #E0E0E0",
"C	c #292621",
"D	c #898681",
"E	c #B7B6B3",
"F	c #CCCBCA",
"G	c #282520",
"....................",
"++++++++++++++++++++",
"@@@@@@@@@@@@@@@@@@@@",
"@@@@@@@@@@@@@@@@@@@@",
"####################",
"######$%&**&%$######",
"####=-;>>,,>>;'=####",
")))!~>{]^))/(_>~:)))",
")))<>[}))))))|1>2)))",
"33|45}333333336;4733",
"338>933333333330>833",
"33a>b3333333333c>d33",
"ee>>7eeeeeeeeee7>>ee",
"ff>>gffffffffffg>>ff",
"ff,>hfi>>>>>>jfk>lff",
"mm0><mn>>>>>>om<>0mm",
"mmg457mmmmmmmm};4pmm",
"mmmq>[pmmmmmmg[>rmmm",
"ssstu>vwxssxy_>ufsss",
"ssssmz5>>AA>>Bzmssss",
"CCCCCC=DEFFED=CCCCCC",
"CCCCCCCCCCCCCCCCCCCC",
"CCCCCCCCCCCCCCCCCCCC",
"GGGGGGGGGGGGGGGGGGGG",
"...................."};
