/* XPM */
static char * maximize_prelight_xpm[] = {
"20 25 75 1",
" 	c None",
".	c #27241F",
"+	c #43403B",
"@	c #312E29",
"#	c #302D28",
"$	c #363430",
"%	c #918E8A",
"&	c #BBBAB7",
"*	c #CECECC",
"=	c #302E2A",
"-	c #A3A19E",
";	c #E2E2E2",
">	c #E6E6E6",
",	c #DCDCDB",
"'	c #A3A19D",
")	c #2F2C27",
"!	c #312F2B",
"~	c #C2C1BF",
"{	c #DEDEDD",
"]	c #9A9793",
"^	c #33312D",
"/	c #35322D",
"(	c #9A9894",
"_	c #DFDFDF",
":	c #322F2A",
"<	c #ACAAA7",
"[	c #D5D5D4",
"}	c #3D3B37",
"|	c #3C3A36",
"1	c #D6D6D5",
"2	c #AAA8A5",
"3	c #2E2B26",
"4	c #E4E4E4",
"5	c #E1E1E1",
"6	c #BAB9B6",
"7	c #3E3C38",
"8	c #3B3935",
"9	c #B0AEAB",
"0	c #ADABA8",
"a	c #AEACA9",
"b	c #DDDDDC",
"c	c #6F6D68",
"d	c #787570",
"e	c #DCDBDB",
"f	c #2D2A25",
"g	c #BAB8B6",
"h	c #BEBDBB",
"i	c #2C2924",
"j	c #3A3834",
"k	c #B9B8B6",
"l	c #B5B4B1",
"m	c #686560",
"n	c #73706B",
"o	c #DBDADA",
"p	c #2B2823",
"q	c #E3E2E2",
"r	c #B4B2B0",
"s	c #393733",
"t	c #A8A6A2",
"u	c #A7A5A2",
"v	c #2A2722",
"w	c #2B2925",
"x	c #BFBEBC",
"y	c #DFDFDE",
"z	c #96938F",
"A	c #2F2D29",
"B	c #979591",
"C	c #9E9C98",
"D	c #DBDBDA",
"E	c #E0E0E0",
"F	c #292621",
"G	c #898681",
"H	c #B7B6B3",
"I	c #CCCBCA",
"J	c #282520",
"....................",
"++++++++++++++++++++",
"@@@@@@@@@@@@@@@@@@@@",
"@@@@@@@@@@@@@@@@@@@@",
"####################",
"######$%&**&%$######",
"####=-;>>,,>>;'=####",
")))!~>{]^))/(_>~:)))",
")))<>[}))))))|1>2)))",
"33|45}333663337;4833",
"339>03333>>3333a>933",
"33b>c3333>>3333d>e33",
"ff>>8fg>>>>>>hf8>>ff",
"ii>>jik>>>>>>lij>>ii",
"ii,>miiii>>iiiin>oii",
"ppa><ppppq>fppp<>app",
"ppj458ppprhppp};4spp",
"pppt>[sppppppj[>uppp",
"vvvwx>yzAvvAB_>xivvv",
"vvvvpC5>>DD>>ECpvvvv",
"FFFFFF=GHIIHG=FFFFFF",
"FFFFFFFFFFFFFFFFFFFF",
"FFFFFFFFFFFFFFFFFFFF",
"JJJJJJJJJJJJJJJJJJJJ",
"...................."};
