#define iconify_hover_width 16
#define iconify_hover_height 16
static unsigned char iconify_hover_bits[] = {
   0xff, 0xff, 0xff, 0xff, 0x03, 0xc0, 0x03, 0xc0, 0x03, 0xc0, 0x03, 0xc0,
   0x03, 0xc0, 0x03, 0xc0, 0x03, 0xc0, 0xf3, 0xcf, 0xf3, 0xcf, 0x03, 0xc0,
   0x03, 0xc0, 0x03, 0xc0, 0xff, 0xff, 0xff, 0xff };
