/* XPM */
static char * maximize_pressed_xpm[] = {
"20 25 52 1",
" 	c None",
".	c #212121",
"+	c #3D3D3D",
"@	c #2C2C2C",
"#	c #2B2B2B",
"$	c #2A2A2A",
"%	c #E7E7E7",
"&	c #E6E6E6",
"*	c #A5A5A5",
"=	c #292929",
"-	c #A3A3A3",
";	c #A3A4A3",
">	c #5E5E5E",
",	c #282828",
"'	c #A1A1A2",
")	c #A1A1A1",
"!	c #CDCDCD",
"~	c #A1A2A1",
"{	c #A0A0A0",
"]	c #9E9F9E",
"^	c #9E9E9F",
"/	c #272727",
"(	c #9C9C9D",
"_	c #C2C2C2",
":	c #9C9B9C",
"<	c #B8B8B8",
"[	c #9B9B9C",
"}	c #262626",
"|	c #9A999A",
"1	c #9A9999",
"2	c #989898",
"3	c #E2E2E2",
"4	c #252525",
"5	c #969796",
"6	c #979697",
"7	c #979797",
"8	c #969697",
"9	c #979696",
"0	c #969696",
"a	c #959595",
"b	c #959594",
"c	c #949595",
"d	c #959495",
"e	c #949594",
"f	c #949494",
"g	c #939493",
"h	c #949493",
"i	c #939494",
"j	c #939394",
"k	c #242424",
"l	c #232323",
"m	c #222222",
"....................",
"++++++++++++++++++++",
"@@@@@@@@@@@@@@@@@@@@",
"@@@@@@@@@@@@@@@@@@@@",
"####################",
"####################",
"$$$%%%%%%%%%%%%%%$$$",
"$$$&************&$$$",
"===&-;-->>>>----&===",
",,,&''))>!!>)~))&,,,",
",,,&{{{{>&&>{{{{&,,,",
",,,&]>>>>&&>>>>^&,,,",
"///&(>_&&&&&&_>(&///",
"///&:><&&&&&&<>[&///",
"}}}&|>>>>&&>>>>1&}}}",
"}}}&2222>3&>2222&}}}",
"444&5657><<>8970&444",
"444&abca>>>>daea&444",
"444&fgfhfffiffgj&444",
"kkk%%%%%%%%%%%%%%kkk",
"llllllllllllllllllll",
"llllllllllllllllllll",
"mmmmmmmmmmmmmmmmmmmm",
"mmmmmmmmmmmmmmmmmmmm",
"...................."};
