/* XPM */
static char * close_pressed_xpm[] = {
"20 25 92 2",
"  	c None",
". 	c #212121",
"+ 	c #3D3D3D",
"@ 	c #2C2C2C",
"# 	c #2B2B2B",
"$ 	c #333333",
"% 	c #8D8D8D",
"& 	c #B9B9B9",
"* 	c #CDCDCD",
"= 	c #323232",
"- 	c #2A2A2A",
"; 	c #9F9F9F",
"> 	c #E2E2E2",
", 	c #E6E6E6",
"' 	c #E0E0E0",
") 	c #2D2D2D",
"! 	c #C0C0C0",
"~ 	c #BCBCBC",
"{ 	c #9C9C9C",
"] 	c #969696",
"^ 	c #292929",
"/ 	c #A8A8A8",
"( 	c #DDDDDD",
"_ 	c #A3A3A1",
": 	c #939392",
"< 	c #A2A2A1",
"[ 	c #A6A6A6",
"} 	c #282828",
"| 	c #383838",
"1 	c #E4E4E4",
"2 	c #A0A0A0",
"3 	c #CCCCCC",
"4 	c #D1D1D1",
"5 	c #8F8F8F",
"6 	c #373737",
"7 	c #ADADAD",
"8 	c #C4C4C4",
"9 	c #8C8C8C",
"0 	c #D6D6D6",
"a 	c #939393",
"b 	c #DCDCDC",
"c 	c #A5A5A5",
"d 	c #898989",
"e 	c #919191",
"f 	c #D7D7D7",
"g 	c #E7E7E7",
"h 	c #D8D8D8",
"i 	c #DBDBDB",
"j 	c #272727",
"k 	c #969695",
"l 	c #858584",
"m 	c #8D8D8C",
"n 	c #D8D8D6",
"o 	c #E7E7E6",
"p 	c #818181",
"q 	c #262626",
"r 	c #9E9E9D",
"s 	c #7D7D7D",
"t 	c #868685",
"u 	c #D5D5D4",
"v 	c #9F9F9E",
"w 	c #DADADA",
"x 	c #ABABAB",
"y 	c #BDBDBD",
"z 	c #7A7A79",
"A 	c #CECECD",
"B 	c #828281",
"C 	c #252525",
"D 	c #353535",
"E 	c #E3E3E3",
"F 	c #C5C5C5",
"G 	c #7E7E7E",
"H 	c #757575",
"I 	c #A4A4A4",
"J 	c #D9D9D9",
"K 	c #878786",
"L 	c #727271",
"M 	c #888887",
"N 	c #A3A3A3",
"O 	c #DFDFDF",
"P 	c #A7A7A7",
"Q 	c #777777",
"R 	c #6D6D6D",
"S 	c #A9A9A9",
"T 	c #242424",
"U 	c #9A9A9A",
"V 	c #E1E1E1",
"W 	c #DEDEDE",
"X 	c #232323",
"Y 	c #B4B4B4",
"Z 	c #CACACA",
"` 	c #222222",
". . . . . . . . . . . . . . . . . . . . ",
"+ + + + + + + + + + + + + + + + + + + + ",
"@ @ @ @ @ @ @ @ @ @ @ @ @ @ @ @ @ @ @ @ ",
"@ @ @ @ @ @ @ @ @ @ @ @ @ @ @ @ @ @ @ @ ",
"# # # # # # # # # # # # # # # # # # # # ",
"# # # # # # $ % & * * & % = # # # # # # ",
"- - - - @ ; > , , ' ' , , > ; @ - - - - ",
"- - - ) ! , ' ~ { ] ] { ~ > , ! @ - - - ",
"^ ^ ^ / , ( _ : : : : : : < ( , [ ^ ^ ^ ",
"} } | 1 1 2 3 4 ] 5 5 ] 4 3 2 1 1 6 } } ",
"} } 7 , 8 9 4 , 0 a a 0 , 4 9 8 , 7 } } ",
"} } b , c d e f g h h g f e d [ , i } } ",
"j j , , k l l m n o o n m l l k , , j j ",
"j j , , a p p d f g g f d p p a , , j j ",
"q q i , r s t u o 0 0 o u t s v , w q q ",
"q q x , y z A o u B B u o A z y , x q q ",
"C C D 1 E 9 F * G H H G * F % 1 1 D C C ",
"C C C I , J K L L L L L L M J , N C C C ",
"C C C j y , O P Q R R Q S ' , y q C C C ",
"T T T T q U V , , W W , , ' U q T T T T ",
"X X X X X X @ G Y Z Z Y G @ X X X X X X ",
"X X X X X X X X X X X X X X X X X X X X ",
"` ` ` ` ` ` ` ` ` ` ` ` ` ` ` ` ` ` ` ` ",
"` ` ` ` ` ` ` ` ` ` ` ` ` ` ` ` ` ` ` ` ",
". . . . . . . . . . . . . . . . . . . . "};
