/* XPM */
static char * close_active_xpm[] = {
"20 25 25 1",
" 	c None",
".	c #212121",
"+	c #3D3D3D",
"@	c #2C2C2C",
"#	c #2B2B2B",
"$	c #2A2A2A",
"%	c #292929",
"&	c #282828",
"*	c #B8B8B8",
"=	c #C2C2C2",
"-	c #303030",
";	c #E6E6E6",
">	c #CBCBCB",
",	c #2F2F2F",
"'	c #CDCDCD",
")	c #272727",
"!	c #2E2E2E",
"~	c #262626",
"{	c #2D2D2D",
"]	c #C1C1C1",
"^	c #252525",
"/	c #B6B6B6",
"(	c #242424",
"_	c #232323",
":	c #222222",
"....................",
"++++++++++++++++++++",
"@@@@@@@@@@@@@@@@@@@@",
"@@@@@@@@@@@@@@@@@@@@",
"####################",
"####################",
"$$$$$$$$$$$$$$$$$$$$",
"$$$$$$$$$$$$$$$$$$$$",
"%%%%%%%%%%%%%%%%%%%%",
"&&&&&&*=-&&-=*&&&&&&",
"&&&&&&=;>-->;=&&&&&&",
"&&&&&&,>;'';>,&&&&&&",
"))))))),';;',)))))))",
")))))))!';;'!)))))))",
"~~~~~~{>;'';>{~~~~~~",
"~~~~~~];>{{>;]~~~~~~",
"^^^^^^/]@^^@]/^^^^^^",
"^^^^^^^^^^^^^^^^^^^^",
"^^^^^^^^^^^^^^^^^^^^",
"((((((((((((((((((((",
"____________________",
"____________________",
"::::::::::::::::::::",
"::::::::::::::::::::",
"...................."};
