/* XPM */
static char * hide_pressed_xpm[] = {
"20 25 82 1",
" 	c None",
".	c #212121",
"+	c #3D3D3D",
"@	c #2C2C2C",
"#	c #2B2B2B",
"$	c #333333",
"%	c #8D8D8D",
"&	c #B9B9B9",
"*	c #CDCDCD",
"=	c #323232",
"-	c #2A2A2A",
";	c #9F9F9F",
">	c #E2E2E2",
",	c #E6E6E6",
"'	c #E0E0E0",
")	c #2D2D2D",
"!	c #C0C0C0",
"~	c #BCBCBC",
"{	c #9C9C9C",
"]	c #969696",
"^	c #292929",
"/	c #A8A8A8",
"(	c #DDDDDD",
"_	c #A3A3A1",
":	c #939392",
"<	c #A2A2A1",
"[	c #A6A6A6",
"}	c #282828",
"|	c #383838",
"1	c #E4E4E4",
"2	c #A0A0A0",
"3	c #8F8F8F",
"4	c #373737",
"5	c #ADADAD",
"6	c #C4C4C4",
"7	c #8C8C8C",
"8	c #DCDCDC",
"9	c #A5A5A5",
"0	c #898989",
"a	c #DBDBDB",
"b	c #272727",
"c	c #969695",
"d	c #858584",
"e	c #939393",
"f	c #818181",
"g	c #262626",
"h	c #9E9E9D",
"i	c #7D7D7D",
"j	c #C8C8C7",
"k	c #E7E7E6",
"l	c #CBCBCB",
"m	c #9F9F9E",
"n	c #DADADA",
"o	c #ABABAB",
"p	c #BDBDBD",
"q	c #7A7A79",
"r	c #C7C7C6",
"s	c #C4C4C3",
"t	c #252525",
"u	c #353535",
"v	c #E3E3E3",
"w	c #757575",
"x	c #A4A4A4",
"y	c #D9D9D9",
"z	c #878786",
"A	c #727271",
"B	c #888887",
"C	c #A3A3A3",
"D	c #DFDFDF",
"E	c #A7A7A7",
"F	c #777777",
"G	c #6D6D6D",
"H	c #A9A9A9",
"I	c #242424",
"J	c #9A9A9A",
"K	c #E1E1E1",
"L	c #DEDEDE",
"M	c #232323",
"N	c #7E7E7E",
"O	c #B4B4B4",
"P	c #CACACA",
"Q	c #222222",
"....................",
"++++++++++++++++++++",
"@@@@@@@@@@@@@@@@@@@@",
"@@@@@@@@@@@@@@@@@@@@",
"####################",
"######$%&**&%=######",
"----@;>,,'',,>;@----",
"---)!,'~{]]{~>,!@---",
"^^^/,(_::::::<(,[^^^",
"}}|112333333332114}}",
"}}5,677777777776,5}}",
"}}8,90000000000[,a}}",
"bb,,cddddddddddc,,bb",
"bb,,effffffffffe,,bb",
"gga,hijkkkkkklim,ngg",
"ggo,pqrkkkkkksqp,ogg",
"ttu1v7wwwwwwww%11utt",
"tttx,yzAAAAAABy,Cttt",
"tttbp,DEFGGFH',pgttt",
"IIIIgJK,,LL,,'JgIIII",
"MMMMMM@NOPPON@MMMMMM",
"MMMMMMMMMMMMMMMMMMMM",
"QQQQQQQQQQQQQQQQQQQQ",
"QQQQQQQQQQQQQQQQQQQQ",
"...................."};
