/* XPM */
static char * hide_prelight_xpm[] = {
"20 25 65 1",
" 	c None",
".	c #212121",
"+	c #3D3D3D",
"@	c #2C2C2C",
"#	c #2B2B2B",
"$	c #333333",
"%	c #8D8D8D",
"&	c #B9B9B9",
"*	c #CDCDCD",
"=	c #323232",
"-	c #2A2A2A",
";	c #9F9F9F",
">	c #E2E2E2",
",	c #E6E6E6",
"'	c #DBDBDB",
")	c #2D2D2D",
"!	c #C0C0C0",
"~	c #DEDEDE",
"{	c #959595",
"]	c #2F2F2F",
"^	c #969696",
"/	c #DFDFDF",
"(	c #292929",
"_	c #A8A8A8",
":	c #D4D4D4",
"<	c #383838",
"[	c #D5D5D5",
"}	c #A6A6A6",
"|	c #282828",
"1	c #E4E4E4",
"2	c #E1E1E1",
"3	c #393939",
"4	c #3A3A3A",
"5	c #373737",
"6	c #ADADAD",
"7	c #AAAAAA",
"8	c #ABABAB",
"9	c #DCDCDC",
"0	c #646464",
"a	c #6C6C6C",
"b	c #272727",
"c	c #363636",
"d	c #262626",
"e	c #5C5C5C",
"f	c #B7B7B7",
"g	c #BCBCBC",
"h	c #DADADA",
"i	c #A9A9A9",
"j	c #B6B6B6",
"k	c #B2B2B2",
"l	c #252525",
"m	c #353535",
"n	c #A4A4A4",
"o	c #A3A3A3",
"p	c #BDBDBD",
"q	c #919191",
"r	c #939393",
"s	c #242424",
"t	c #9A9A9A",
"u	c #E0E0E0",
"v	c #232323",
"w	c #7E7E7E",
"x	c #B4B4B4",
"y	c #CACACA",
"z	c #222222",
"....................",
"++++++++++++++++++++",
"@@@@@@@@@@@@@@@@@@@@",
"@@@@@@@@@@@@@@@@@@@@",
"####################",
"######$%&**&%=######",
"----@;>,,'',,>;@----",
"---)!,~{]--]^/,!@---",
"(((_,:<((((((<[,}(((",
"||<123||||||||4>15||",
"||6,7||||||||||8,6||",
"||9,0||||||||||a,'||",
"bb,,5bbbbbbbbbb5,,bb",
"bb,,cbbbbbbbbbbc,,bb",
"dd',edf,,,,,,gd0,hdd",
"dd8,idj,,,,,,kd_,8dd",
"llm125llllllll<>1mll",
"llln,:mllllllm:,olll",
"lllbp,~q#ll#r/,pdlll",
"ssssdt2,,'',,utdssss",
"vvvvvv@wxyyxw@vvvvvv",
"vvvvvvvvvvvvvvvvvvvv",
"zzzzzzzzzzzzzzzzzzzz",
"zzzzzzzzzzzzzzzzzzzz",
"...................."};
