/* XPM */
static char * close_prelight_xpm[] = {
"20 25 50 1",
" 	c None",
".	c #212121",
"+	c #3D3D3D",
"@	c #2C2C2C",
"#	c #2B2B2B",
"$	c #898989",
"%	c #B5B5B5",
"&	c #BBBBBB",
"*	c #C4C4C4",
"=	c #CACACA",
"-	c #CCCCCC",
";	c #C3C3C3",
">	c #BABABA",
",	c #B2B2B2",
"'	c #858585",
")	c #2A2A2A",
"!	c #B1B1B1",
"~	c #E7E7E7",
"{	c #E4E4E4",
"]	c #DFDFDF",
"^	c #DBDBDB",
"/	c #DADADA",
"(	c #E5E5E5",
"_	c #AAAAAA",
":	c #E6E6E6",
"<	c #AEAEAE",
"[	c #292929",
"}	c #DEDEDE",
"|	c #363636",
"1	c #383838",
"2	c #3A3A3A",
"3	c #D4D4D4",
"4	c #282828",
"5	c #B8B8B8",
"6	c #C2C2C2",
"7	c #303030",
"8	c #2F2F2F",
"9	c #E0E0E0",
"0	c #CBCBCB",
"a	c #CDCDCD",
"b	c #272727",
"c	c #262626",
"d	c #252525",
"e	c #BEBEBE",
"f	c #D0D0D0",
"g	c #242424",
"h	c #818181",
"i	c #ACACAC",
"j	c #232323",
"k	c #222222",
"....................",
"++++++++++++++++++++",
"@@@@@@@@@@@@@@@@@@@@",
"@@@@@@@@@@@@@@@@@@@@",
"####################",
"##$%&*&*=--=;>;>,'##",
"))!~{]{]^//^]{]{(_))",
"))>:)))))))))))):<))",
"[[}:[|1|[[[[|2|[:3[[",
"44{:425674486514:944",
"44::4|6:0780:6|4:{44",
"44~:4480:aa:0744::44",
"bb~:bbb8a::a7bbb:~bb",
"bb::bbb7a::a8bbb:~bb",
"cc{:cc70:aa:08cc::cc",
"cc9:c|6:0870:6|c:{cc",
"dd3:d1568dd7652d:}dd",
"dde:d|2|dddd|1|d:fdd",
"dd<:dddddddddddd:>dd",
"gghi{]{]^//^]{]{~!gg",
"jj',>;>;=--=*&*&%$jj",
"jjjjjjjjjjjjjjjjjjjj",
"kkkkkkkkkkkkkkkkkkkk",
"kkkkkkkkkkkkkkkkkkkk",
"...................."};
