/* XPM */
static char * hide_inactive_xpm[] = {
"20 25 19 1",
" 	c None",
".	c #212121",
"+	c #383838",
"@	c #2C2C2C",
"#	c #2B2B2B",
"$	c #2A2A2A",
"%	c #292929",
"&	c #282828",
"*	c #272727",
"=	c #262626",
"-	c #7A7A7A",
";	c #9B9B9B",
">	c #858585",
",	c #757575",
"'	c #6D6D6D",
")	c #252525",
"!	c #242424",
"~	c #232323",
"{	c #222222",
"....................",
"++++++++++++++++++++",
"@@@@@@@@@@@@@@@@@@@@",
"@@@@@@@@@@@@@@@@@@@@",
"####################",
"####################",
"$$$$$$$$$$$$$$$$$$$$",
"$$$$$$$$$$$$$$$$$$$$",
"%%%%%%%%%%%%%%%%%%%%",
"&&&&&&&&&&&&&&&&&&&&",
"&&&&&&&&&&&&&&&&&&&&",
"&&&&&&&&&&&&&&&&&&&&",
"********************",
"********************",
"======-;;;;;;>======",
"======,;;;;;;'======",
"))))))))))))))))))))",
"))))))))))))))))))))",
"))))))))))))))))))))",
"!!!!!!!!!!!!!!!!!!!!",
"~~~~~~~~~~~~~~~~~~~~",
"~~~~~~~~~~~~~~~~~~~~",
"{{{{{{{{{{{{{{{{{{{{",
"{{{{{{{{{{{{{{{{{{{{",
"...................."};
