/* XPM */
static char * close_pressed_xpm[] = {
"20 25 78 1",
" 	c None",
".	c #212121",
"+	c #3D3D3D",
"@	c #2C2C2C",
"#	c #2B2B2B",
"$	c #898989",
"%	c #B5B5B5",
"&	c #BBBBBB",
"*	c #C4C4C4",
"=	c #CACACA",
"-	c #CCCCCC",
";	c #C3C3C3",
">	c #BABABA",
",	c #B2B2B2",
"'	c #858585",
")	c #2A2A2A",
"!	c #B1B1B1",
"~	c #E7E7E7",
"{	c #E4E4E4",
"]	c #DFDFDF",
"^	c #DBDBDB",
"/	c #DADADA",
"(	c #E5E5E5",
"_	c #AAAAAA",
":	c #E6E6E6",
"<	c #A5A5A5",
"[	c #AEAEAE",
"}	c #292929",
"|	c #DEDEDE",
"1	c #A3A3A3",
"2	c #303030",
"3	c #A3A3A4",
"4	c #D4D4D4",
"5	c #282828",
"6	c #A1A1A2",
"7	c #B8B8B8",
"8	c #C2C2C2",
"9	c #A1A1A1",
"0	c #E0E0E0",
"a	c #A0A0A0",
"b	c #CBCBCB",
"c	c #9E9F9E",
"d	c #9E9E9E",
"e	c #CDCDCD",
"f	c #9E9E9F",
"g	c #272727",
"h	c #9C9C9D",
"i	c #9D9D9C",
"j	c #9C9D9C",
"k	c #9C9D9D",
"l	c #9C9B9C",
"m	c #9C9C9B",
"n	c #9B9C9B",
"o	c #9C9C9C",
"p	c #9B9B9C",
"q	c #262626",
"r	c #9A999A",
"s	c #999A99",
"t	c #9A9999",
"u	c #989898",
"v	c #252525",
"w	c #969796",
"x	c #979797",
"y	c #969696",
"z	c #BEBEBE",
"A	c #959595",
"B	c #959495",
"C	c #D0D0D0",
"D	c #949494",
"E	c #939493",
"F	c #949493",
"G	c #939494",
"H	c #939394",
"I	c #242424",
"J	c #818181",
"K	c #ACACAC",
"L	c #232323",
"M	c #222222",
"....................",
"++++++++++++++++++++",
"@@@@@@@@@@@@@@@@@@@@",
"@@@@@@@@@@@@@@@@@@@@",
"####################",
"##$%&*&*=--=;>;>,'##",
"))!~{]{]^//^]{]{(_))",
"))>:<<<<<<<<<<<<:[))",
"}}|:122211312221:4}}",
"55{:627829628729:055",
"55::a28:b22b:82a:{55",
"55~:cd2b:ee:b2df::55",
"gg~:hij2e::e2kih:~gg",
"gg::lmn2e::e2nop:~gg",
"qq{:rs2b:ee:b2rt::qq",
"qq0:u28:b22b:82u:{qq",
"vv4:w2782wx2872y:|vv",
"vvz:A222BAAA222A:Cvv",
"vv[:DEDFDDDGDDEH:>vv",
"IIJK{]{]^//^]{]{~!II",
"LL',>;>;=--=*&*&%$LL",
"LLLLLLLLLLLLLLLLLLLL",
"MMMMMMMMMMMMMMMMMMMM",
"MMMMMMMMMMMMMMMMMMMM",
"...................."};
