/* XPM */
static char * hide_pressed_xpm[] = {
"20 25 81 1",
" 	c None",
".	c #212121",
"+	c #3D3D3D",
"@	c #2C2C2C",
"#	c #2B2B2B",
"$	c #898989",
"%	c #B5B5B5",
"&	c #BBBBBB",
"*	c #C4C4C4",
"=	c #CACACA",
"-	c #CCCCCC",
";	c #C3C3C3",
">	c #BABABA",
",	c #B2B2B2",
"'	c #858585",
")	c #2A2A2A",
"!	c #B1B1B1",
"~	c #E7E7E7",
"{	c #E4E4E4",
"]	c #DFDFDF",
"^	c #DBDBDB",
"/	c #DADADA",
"(	c #E5E5E5",
"_	c #AAAAAA",
":	c #E6E6E6",
"<	c #A5A5A5",
"[	c #AEAEAE",
"}	c #292929",
"|	c #DEDEDE",
"1	c #A3A3A3",
"2	c #A3A4A3",
"3	c #A3A3A4",
"4	c #D4D4D4",
"5	c #282828",
"6	c #A1A1A2",
"7	c #A1A1A1",
"8	c #A1A2A1",
"9	c #E0E0E0",
"0	c #A0A0A0",
"a	c #9E9F9E",
"b	c #9E9E9E",
"c	c #9F9F9F",
"d	c #9F9E9E",
"e	c #9E9E9F",
"f	c #272727",
"g	c #9C9C9D",
"h	c #9D9D9C",
"i	c #9C9D9C",
"j	c #9C9C9C",
"k	c #9C9D9D",
"l	c #9D9C9C",
"m	c #9C9B9C",
"n	c #303030",
"o	c #9B9B9C",
"p	c #262626",
"q	c #9A999A",
"r	c #B7B7B7",
"s	c #BCBCBC",
"t	c #9A9999",
"u	c #989898",
"v	c #B6B6B6",
"w	c #252525",
"x	c #969796",
"y	c #969696",
"z	c #BEBEBE",
"A	c #959595",
"B	c #959594",
"C	c #949595",
"D	c #959495",
"E	c #949594",
"F	c #D0D0D0",
"G	c #949494",
"H	c #939493",
"I	c #949493",
"J	c #939494",
"K	c #939394",
"L	c #242424",
"M	c #818181",
"N	c #ACACAC",
"O	c #232323",
"P	c #222222",
"....................",
"++++++++++++++++++++",
"@@@@@@@@@@@@@@@@@@@@",
"@@@@@@@@@@@@@@@@@@@@",
"####################",
"##$%&*&*=--=;>;>,'##",
"))!~{]{]^//^]{]{(_))",
"))>:<<<<<<<<<<<<:[))",
"}}|:121111311111:4}}",
"55{:667767667877:955",
"55::000000000000:{55",
"55~:abacdbabebbe::55",
"ff~:ghijjikljkhg:~ff",
"ff::mnnnnnnnnnno:~ff",
"pp{:qnr::::::snt::pp",
"pp9:unv::::::,nu:{pp",
"ww4:xnnnnnnnnnny:|ww",
"wwz:ABCADAAADAEA:Fww",
"ww[:GHGIGGGJGGHK:>ww",
"LLMN{]{]^//^]{]{~!LL",
"OO',>;>;=--=*&*&%$OO",
"OOOOOOOOOOOOOOOOOOOO",
"PPPPPPPPPPPPPPPPPPPP",
"PPPPPPPPPPPPPPPPPPPP",
"...................."};
