/* XPM */
static char * maximize_pressed_xpm[] = {
"20 25 88 1",
" 	c None",
".	c #212121",
"+	c #3D3D3D",
"@	c #2C2C2C",
"#	c #2B2B2B",
"$	c #787878",
"%	c #AFAFAF",
"&	c #C7C7C7",
"*	c #3C3C3C",
"=	c #2A2A2A",
"-	c #2E2E2E",
";	c #8F8F8F",
">	c #E1E1E1",
",	c #E6E6E6",
"'	c #DFDFDF",
")	c #313131",
"!	c #B8B8B8",
"~	c #B3B3B3",
"{	c #8C8C8C",
"]	c #858585",
"^	c #303030",
"/	c #292929",
"(	c #9B9B9B",
"_	c #DBDBDB",
":	c #949492",
"<	c #818180",
"[	c #9D9D9D",
"}	c #939392",
"|	c #989898",
"1	c #282828",
"2	c #4A4A4A",
"3	c #E4E4E4",
"4	c #919191",
"5	c #7C7C7C",
"6	c #9A9A9A",
"7	c #D8D8D8",
"8	c #E3E3E3",
"9	c #494949",
"0	c #A1A1A1",
"a	c #BDBDBD",
"b	c #A0A0A0",
"c	c #DADADA",
"d	c #979797",
"e	c #969696",
"f	c #E7E7E7",
"g	c #999999",
"h	c #D9D9D9",
"i	c #272727",
"j	c #868685",
"k	c #D1D1D0",
"l	c #E7E7E6",
"m	c #828282",
"n	c #909090",
"o	c #C9C9C9",
"p	c #262626",
"q	c #8F8F8E",
"r	c #8D8D8D",
"s	c #91918F",
"t	c #9F9F9F",
"u	c #B5B5B5",
"v	c #646463",
"w	c #8B8B8A",
"x	c #E5E5E4",
"y	c #252525",
"z	c #474747",
"A	c #7B7B7B",
"B	c #606060",
"C	c #888888",
"D	c #464646",
"E	c #D7D7D7",
"F	c #757574",
"G	c #5C5C5B",
"H	c #858584",
"I	c #767675",
"J	c #B6B6B6",
"K	c #DEDEDE",
"L	c #9C9C9C",
"M	c #626262",
"N	c #575757",
"O	c #242424",
"P	c #E0E0E0",
"Q	c #DDDDDD",
"R	c #232323",
"S	c #343434",
"T	c #717171",
"U	c #ABABAB",
"V	c #C5C5C5",
"W	c #222222",
"....................",
"++++++++++++++++++++",
"@@@@@@@@@@@@@@@@@@@@",
"@@@@@@@@@@@@@@@@@@@@",
"####################",
"######+$%&&%$*######",
"====-;>,,'',,>;-====",
"===)!,'~{]]{~>,!^===",
"///(,_:<[[[[<}_,|///",
"11233455677655483911",
"110,a$$$|,,|$$$a,b11",
"11c,deeeeffeeeeg,h11",
"ii,,j}kllllllk}j,,ii",
"ii,,mnoffffffonm,,ii",
"pph,qrrrrllrrrrs,7pp",
"ppt,uvvvwxlwvvvu,tpp",
"yyz38ABBC&&CBB588Dyy",
"yyy|,EFGHHHHGIE,dyyy",
"yyy=J,KLMNNM[',J/yyy",
"OOOO1{P,,QQ,,'{1OOOO",
"RRRRRRSTUVVUTSRRRRRR",
"RRRRRRRRRRRRRRRRRRRR",
"WWWWWWWWWWWWWWWWWWWW",
"WWWWWWWWWWWWWWWWWWWW",
"...................."};
