/* XPM */
static char * maximize_prelight_xpm[] = {
"20 25 46 1",
" 	c None",
".	c #212121",
"+	c #3D3D3D",
"@	c #2C2C2C",
"#	c #2B2B2B",
"$	c #898989",
"%	c #B5B5B5",
"&	c #BBBBBB",
"*	c #C4C4C4",
"=	c #CACACA",
"-	c #CCCCCC",
";	c #C3C3C3",
">	c #BABABA",
",	c #B2B2B2",
"'	c #858585",
")	c #2A2A2A",
"!	c #B1B1B1",
"~	c #E7E7E7",
"{	c #E4E4E4",
"]	c #DFDFDF",
"^	c #DBDBDB",
"/	c #DADADA",
"(	c #E5E5E5",
"_	c #AAAAAA",
":	c #E6E6E6",
"<	c #AEAEAE",
"[	c #292929",
"}	c #DEDEDE",
"|	c #303030",
"1	c #D4D4D4",
"2	c #282828",
"3	c #CDCDCD",
"4	c #E0E0E0",
"5	c #272727",
"6	c #C2C2C2",
"7	c #B8B8B8",
"8	c #262626",
"9	c #E2E2E2",
"0	c #252525",
"a	c #BEBEBE",
"b	c #D0D0D0",
"c	c #242424",
"d	c #818181",
"e	c #ACACAC",
"f	c #232323",
"g	c #222222",
"....................",
"++++++++++++++++++++",
"@@@@@@@@@@@@@@@@@@@@",
"@@@@@@@@@@@@@@@@@@@@",
"####################",
"##$%&*&*=--=;>;>,'##",
"))!~{]{]^//^]{]{(_))",
"))>:)))))))))))):<))",
"[[}:[[[[||||[[[[:1[[",
"22{:2222|33|2222:422",
"22::2222|::|2222:{22",
"22~:2||||::||||2::22",
"55~:5|6::::::6|5:~55",
"55::5|7::::::7|5:~55",
"88{:8||||::||||8::88",
"884:8888|9:|8888:{88",
"001:0000|77|0000:}00",
"00a:0000||||0000:b00",
"00<:000000000000:>00",
"ccde{]{]^//^]{]{~!cc",
"ff',>;>;=--=*&*&%$ff",
"ffffffffffffffffffff",
"gggggggggggggggggggg",
"gggggggggggggggggggg",
"...................."};
