/* XPM */
static char * hide_prelight_xpm[] = {
"20 25 45 1",
" 	c None",
".	c #212121",
"+	c #3D3D3D",
"@	c #2C2C2C",
"#	c #2B2B2B",
"$	c #898989",
"%	c #B5B5B5",
"&	c #BBBBBB",
"*	c #C4C4C4",
"=	c #CACACA",
"-	c #CCCCCC",
";	c #C3C3C3",
">	c #BABABA",
",	c #B2B2B2",
"'	c #858585",
")	c #2A2A2A",
"!	c #B1B1B1",
"~	c #E7E7E7",
"{	c #E4E4E4",
"]	c #DFDFDF",
"^	c #DBDBDB",
"/	c #DADADA",
"(	c #E5E5E5",
"_	c #AAAAAA",
":	c #E6E6E6",
"<	c #AEAEAE",
"[	c #292929",
"}	c #DEDEDE",
"|	c #D4D4D4",
"1	c #282828",
"2	c #E0E0E0",
"3	c #272727",
"4	c #303030",
"5	c #262626",
"6	c #B7B7B7",
"7	c #BCBCBC",
"8	c #B6B6B6",
"9	c #252525",
"0	c #BEBEBE",
"a	c #D0D0D0",
"b	c #242424",
"c	c #818181",
"d	c #ACACAC",
"e	c #232323",
"f	c #222222",
"....................",
"++++++++++++++++++++",
"@@@@@@@@@@@@@@@@@@@@",
"@@@@@@@@@@@@@@@@@@@@",
"####################",
"##$%&*&*=--=;>;>,'##",
"))!~{]{]^//^]{]{(_))",
"))>:)))))))))))):<))",
"[[}:[[[[[[[[[[[[:|[[",
"11{:111111111111:211",
"11::111111111111:{11",
"11~:111111111111::11",
"33~:333333333333:~33",
"33::344444444443:~33",
"55{:546::::::745::55",
"552:548::::::,45:{55",
"99|:944444444449:}99",
"990:999999999999:a99",
"99<:999999999999:>99",
"bbcd{]{]^//^]{]{~!bb",
"ee',>;>;=--=*&*&%$ee",
"eeeeeeeeeeeeeeeeeeee",
"ffffffffffffffffffff",
"ffffffffffffffffffff",
"...................."};
