/* XPM */
static char * maximize_pressed_xpm[] = {
"20 25 77 1",
" 	c None",
".	c #212121",
"+	c #3D3D3D",
"@	c #2C2C2C",
"#	c #2B2B2B",
"$	c #898989",
"%	c #B5B5B5",
"&	c #BBBBBB",
"*	c #C4C4C4",
"=	c #CACACA",
"-	c #CCCCCC",
";	c #C3C3C3",
">	c #BABABA",
",	c #B2B2B2",
"'	c #858585",
")	c #2A2A2A",
"!	c #B1B1B1",
"~	c #E7E7E7",
"{	c #E4E4E4",
"]	c #DFDFDF",
"^	c #DBDBDB",
"/	c #DADADA",
"(	c #E5E5E5",
"_	c #AAAAAA",
":	c #E6E6E6",
"<	c #A5A5A5",
"[	c #AEAEAE",
"}	c #292929",
"|	c #DEDEDE",
"1	c #A3A3A3",
"2	c #A3A4A3",
"3	c #303030",
"4	c #D4D4D4",
"5	c #282828",
"6	c #A1A1A2",
"7	c #A1A1A1",
"8	c #CDCDCD",
"9	c #A1A2A1",
"0	c #E0E0E0",
"a	c #A0A0A0",
"b	c #9E9F9E",
"c	c #9E9E9F",
"d	c #272727",
"e	c #9C9C9D",
"f	c #C2C2C2",
"g	c #9C9B9C",
"h	c #B8B8B8",
"i	c #9B9B9C",
"j	c #262626",
"k	c #9A999A",
"l	c #9A9999",
"m	c #989898",
"n	c #E2E2E2",
"o	c #252525",
"p	c #969796",
"q	c #979697",
"r	c #979797",
"s	c #969697",
"t	c #979696",
"u	c #969696",
"v	c #BEBEBE",
"w	c #959595",
"x	c #959594",
"y	c #949595",
"z	c #959495",
"A	c #949594",
"B	c #D0D0D0",
"C	c #949494",
"D	c #939493",
"E	c #949493",
"F	c #939494",
"G	c #939394",
"H	c #242424",
"I	c #818181",
"J	c #ACACAC",
"K	c #232323",
"L	c #222222",
"....................",
"++++++++++++++++++++",
"@@@@@@@@@@@@@@@@@@@@",
"@@@@@@@@@@@@@@@@@@@@",
"####################",
"##$%&*&*=--=;>;>,'##",
"))!~{]{]^//^]{]{(_))",
"))>:<<<<<<<<<<<<:[))",
"}}|:121133331111:4}}",
"55{:667738837977:055",
"55::aaaa3::3aaaa:{55",
"55~:b3333::3333c::55",
"dd~:e3f::::::f3e:~dd",
"dd::g3h::::::h3i:~dd",
"jj{:k3333::3333l::jj",
"jj0:mmmm3n:3mmmm:{jj",
"oo4:pqpr3hh3stru:|oo",
"oov:wxyw3333zwAw:Boo",
"oo[:CDCECCCFCCDG:>oo",
"HHIJ{]{]^//^]{]{~!HH",
"KK',>;>;=--=*&*&%$KK",
"KKKKKKKKKKKKKKKKKKKK",
"LLLLLLLLLLLLLLLLLLLL",
"LLLLLLLLLLLLLLLLLLLL",
"...................."};
