/* XPM */
static char * title_3_active_xpm[] = {
"8 25 14 1",
" 	c None",
".	c #212121",
"+	c #3D3D3D",
"@	c #2C2C2C",
"#	c #2B2B2B",
"$	c #2A2A2A",
"%	c #292929",
"&	c #282828",
"*	c #272727",
"=	c #262626",
"-	c #252525",
";	c #242424",
">	c #232323",
",	c #222222",
"........",
"++++++++",
"@@@@@@@@",
"@@@@@@@@",
"########",
"########",
"$$$$$$$$",
"$$$$$$$$",
"%%%%%%%%",
"&&&&&&&&",
"&&&&&&&&",
"&&&&&&&&",
"********",
"********",
"========",
"========",
"--------",
"--------",
"--------",
";;;;;;;;",
">>>>>>>>",
">>>>>>>>",
",,,,,,,,",
",,,,,,,,",
"........"};
