#define close_hover_width 16
#define close_hover_height 16
static unsigned char close_hover_bits[] = {
   0xc0, 0x03, 0xf8, 0x0f, 0x1c, 0x38, 0x0c, 0x70, 0x36, 0x6c, 0x77, 0xee,
   0xe3, 0xc7, 0xc3, 0xc3, 0xc3, 0xc3, 0xe3, 0xc7, 0x77, 0xee, 0x26, 0x6c,
   0x0e, 0x70, 0x1c, 0x38, 0xf0, 0x0f, 0xc0, 0x03 };
