#define min_width 8
#define min_height 8
static unsigned char min_bits[] = {
   0x00, 0x00, 0x00, 0x00, 0x00, 0xff, 0xff, 0x00 };
