#define iconify_pressed_width 14
#define iconify_pressed_height 14
static unsigned char iconify_pressed_bits[] = {
   0xff, 0x3f, 0x01, 0x20, 0x01, 0x20, 0x01, 0x20, 0x01, 0x20, 0x01, 0x20,
   0x01, 0x20, 0x01, 0x20, 0xf9, 0x27, 0xf9, 0x27, 0x01, 0x20, 0x01, 0x20,
   0x01, 0x20, 0xff, 0x3f };
