#define iconify_hover_width 16
#define iconify_hover_height 16
static unsigned char iconify_hover_bits[] = {
   0xc0, 0x03, 0xf8, 0x0f, 0x1c, 0x38, 0x0c, 0x70, 0x06, 0x60, 0x07, 0xc0,
   0x03, 0xc0, 0x03, 0xc0, 0x03, 0xc0, 0xf3, 0xcf, 0xf7, 0xef, 0x06, 0x60,
   0x0c, 0x70, 0x1c, 0x38, 0xf0, 0x0f, 0xc0, 0x03 };
