#define max_toggled_width 14
#define max_toggled_height 14
static unsigned char max_toggled_bits[] = {
   0xff, 0x3f, 0x01, 0x20, 0x01, 0x20, 0xc1, 0x20, 0xc1, 0x20, 0xc1, 0x20,
   0xf9, 0x27, 0xf9, 0x27, 0xc1, 0x20, 0xc1, 0x20, 0xc1, 0x20, 0x01, 0x20,
   0x01, 0x20, 0xff, 0x3f };
