#define max_hover_width 16
#define max_hover_height 16
static unsigned char max_hover_bits[] = {
   0xc0, 0x03, 0xf8, 0x0f, 0x1c, 0x38, 0x0c, 0x70, 0x86, 0x60, 0x87, 0xc1,
   0x83, 0xc1, 0xf3, 0xcf, 0xf3, 0xcf, 0x83, 0xc1, 0x87, 0xe1, 0x86, 0x61,
   0x0e, 0x70, 0x1c, 0x38, 0xf0, 0x0f, 0xc0, 0x03 };
