/* XPM */
static char * close_prelight_xpm[] = {
"20 25 69 1",
" 	c None",
".	c #212121",
"+	c #3D3D3D",
"@	c #2C2C2C",
"#	c #2B2B2B",
"$	c #333333",
"%	c #7B7B7B",
"&	c #B9B9B9",
"*	c #CDCDCD",
"=	c #323232",
"-	c #2A2A2A",
";	c #9F9F9F",
">	c #E2E2E2",
",	c #E6E6E6",
"'	c #DBDBDB",
")	c #2D2D2D",
"!	c #C0C0C0",
"~	c #DEDEDE",
"{	c #959595",
"]	c #2F2F2F",
"^	c #969696",
"/	c #DFDFDF",
"(	c #292929",
"_	c #A8A8A8",
":	c #D4D4D4",
"<	c #383838",
"[	c #D5D5D5",
"}	c #A6A6A6",
"|	c #282828",
"1	c #E4E4E4",
"2	c #E1E1E1",
"3	c #393939",
"4	c #B8B8B8",
"5	c #C2C2C2",
"6	c #303030",
"7	c #3A3A3A",
"8	c #373737",
"9	c #ADADAD",
"0	c #AAAAAA",
"a	c #CBCBCB",
"b	c #ABABAB",
"c	c #DCDCDC",
"d	c #494949",
"e	c #525252",
"f	c #272727",
"g	c #363636",
"h	c #2E2E2E",
"i	c #262626",
"j	c #434343",
"k	c #4C4C4C",
"l	c #DADADA",
"m	c #A9A9A9",
"n	c #C1C1C1",
"o	c #252525",
"p	c #353535",
"q	c #B6B6B6",
"r	c #A4A4A4",
"s	c #A3A3A3",
"t	c #BDBDBD",
"u	c #919191",
"v	c #939393",
"w	c #242424",
"x	c #9A9A9A",
"y	c #E0E0E0",
"z	c #232323",
"A	c #585858",
"B	c #B4B4B4",
"C	c #CACACA",
"D	c #222222",
"....................",
"++++++++++++++++++++",
"@@@@@@@@@@@@@@@@@@@@",
"@@@@@@@@@@@@@@@@@@@@",
"####################",
"######$%&**&%=######",
"----@;>,,'',,>;@----",
"---)!,~{]--]^/,!@---",
"(((_,:<((((((<[,}(((",
"||<123456||6547>18||",
"||9,0|5,a66a,5|b,9||",
"||c,d|]a,**,a]|e,'||",
"ff,,8ff]*,,*]ff8,,ff",
"ff,,gffh*,,*hffg,,ff",
"ii',ji)a,**,a)ik,lii",
"iib,min,a))a,ni_,bii",
"oop128qn@oo@nq<>1poo",
"ooor,:poooooop:,sooo",
"oooft,~u#oo#v/,tiooo",
"wwwwix2,,'',,yxiwwww",
"zzzzzz@ABCCBA@zzzzzz",
"zzzzzzzzzzzzzzzzzzzz",
"DDDDDDDDDDDDDDDDDDDD",
"DDDDDDDDDDDDDDDDDDDD",
"...................."};
