/* XPM */
static char * maximize_prelight_xpm[] = {
"20 25 66 1",
" 	c None",
".	c #212121",
"+	c #3D3D3D",
"@	c #2C2C2C",
"#	c #2B2B2B",
"$	c #333333",
"%	c #8D8D8D",
"&	c #B9B9B9",
"*	c #CDCDCD",
"=	c #323232",
"-	c #2A2A2A",
";	c #9F9F9F",
">	c #E2E2E2",
",	c #E6E6E6",
"'	c #DBDBDB",
")	c #2D2D2D",
"!	c #C0C0C0",
"~	c #DEDEDE",
"{	c #959595",
"]	c #2F2F2F",
"^	c #969696",
"/	c #DFDFDF",
"(	c #292929",
"_	c #A8A8A8",
":	c #D4D4D4",
"<	c #383838",
"[	c #D5D5D5",
"}	c #A6A6A6",
"|	c #282828",
"1	c #E4E4E4",
"2	c #E1E1E1",
"3	c #393939",
"4	c #B8B8B8",
"5	c #3A3A3A",
"6	c #373737",
"7	c #ADADAD",
"8	c #AAAAAA",
"9	c #ABABAB",
"0	c #DCDCDC",
"a	c #646464",
"b	c #6C6C6C",
"c	c #272727",
"d	c #B7B7B7",
"e	c #BDBDBD",
"f	c #363636",
"g	c #B3B3B3",
"h	c #262626",
"i	c #5C5C5C",
"j	c #DADADA",
"k	c #A9A9A9",
"l	c #252525",
"m	c #353535",
"n	c #B1B1B1",
"o	c #BCBCBC",
"p	c #A4A4A4",
"q	c #A3A3A3",
"r	c #919191",
"s	c #939393",
"t	c #242424",
"u	c #9A9A9A",
"v	c #E0E0E0",
"w	c #232323",
"x	c #818181",
"y	c #B4B4B4",
"z	c #CACACA",
"A	c #222222",
"....................",
"++++++++++++++++++++",
"@@@@@@@@@@@@@@@@@@@@",
"@@@@@@@@@@@@@@@@@@@@",
"####################",
"######$%&**&%=######",
"----@;>,,'',,>;@----",
"---)!,~{]--]^/,!@---",
"(((_,:<((((((<[,}(((",
"||<123|||44|||5>16||",
"||7,8||||,,||||9,7||",
"||0,a||||,,||||b,'||",
"cc,,6cd,,,,,,ec6,,cc",
"cc,,fcd,,,,,,gcf,,cc",
"hh',ihhhh,,hhhha,jhh",
"hh9,khhhh>,|hhh_,9hh",
"llm126lllnolll<>1mll",
"lllp,:mllllllm:,qlll",
"lllce,~r#ll#s/,ehlll",
"tttthu2,,'',,vuhtttt",
"wwwwww@xyzzyx@wwwwww",
"wwwwwwwwwwwwwwwwwwww",
"AAAAAAAAAAAAAAAAAAAA",
"AAAAAAAAAAAAAAAAAAAA",
"...................."};
