/* XPM */
static char * maximize_inactive_xpm[] = {
"20 25 22 1",
" 	c None",
".	c #212121",
"+	c #383838",
"@	c #2C2C2C",
"#	c #2B2B2B",
"$	c #2A2A2A",
"%	c #292929",
"&	c #282828",
"*	c #7E7E7E",
"=	c #9B9B9B",
"-	c #272727",
";	c #7A7A7A",
">	c #868686",
",	c #717171",
"'	c #262626",
")	c #999999",
"!	c #252525",
"~	c #6D6D6D",
"{	c #828282",
"]	c #242424",
"^	c #232323",
"/	c #222222",
"....................",
"++++++++++++++++++++",
"@@@@@@@@@@@@@@@@@@@@",
"@@@@@@@@@@@@@@@@@@@@",
"####################",
"####################",
"$$$$$$$$$$$$$$$$$$$$",
"$$$$$$$$$$$$$$$$$$$$",
"%%%%%%%%%%%%%%%%%%%%",
"&&&&&&&&&**&&&&&&&&&",
"&&&&&&&&&==&&&&&&&&&",
"&&&&&&&&&==&&&&&&&&&",
"------;======>------",
"------;======,------",
"'''''''''=='''''''''",
"''''''''')=-''''''''",
"!!!!!!!!!~{!!!!!!!!!",
"!!!!!!!!!!!!!!!!!!!!",
"!!!!!!!!!!!!!!!!!!!!",
"]]]]]]]]]]]]]]]]]]]]",
"^^^^^^^^^^^^^^^^^^^^",
"^^^^^^^^^^^^^^^^^^^^",
"////////////////////",
"////////////////////",
"...................."};
