/* XPM */
static char * maximize_pressed_xpm[] = {
"20 25 87 1",
" 	c None",
".	c #212121",
"+	c #3D3D3D",
"@	c #2C2C2C",
"#	c #2B2B2B",
"$	c #333333",
"%	c #8D8D8D",
"&	c #B9B9B9",
"*	c #CDCDCD",
"=	c #323232",
"-	c #2A2A2A",
";	c #9F9F9F",
">	c #E2E2E2",
",	c #E6E6E6",
"'	c #E0E0E0",
")	c #2D2D2D",
"!	c #C0C0C0",
"~	c #BCBCBC",
"{	c #9C9C9C",
"]	c #969696",
"^	c #292929",
"/	c #A8A8A8",
"(	c #DDDDDD",
"_	c #A3A3A1",
":	c #939392",
"<	c #A2A2A1",
"[	c #A6A6A6",
"}	c #282828",
"|	c #383838",
"1	c #E4E4E4",
"2	c #A0A0A0",
"3	c #8F8F8F",
"4	c #CCCCCC",
"5	c #373737",
"6	c #ADADAD",
"7	c #C4C4C4",
"8	c #8C8C8C",
"9	c #DCDCDC",
"0	c #A5A5A5",
"a	c #898989",
"b	c #E7E7E7",
"c	c #DBDBDB",
"d	c #272727",
"e	c #969695",
"f	c #858584",
"g	c #CACAC9",
"h	c #E7E7E6",
"i	c #CECECC",
"j	c #939393",
"k	c #818181",
"l	c #C9C9C9",
"m	c #C6C6C6",
"n	c #262626",
"o	c #9E9E9D",
"p	c #7D7D7D",
"q	c #9F9F9E",
"r	c #DADADA",
"s	c #ABABAB",
"t	c #BDBDBD",
"u	c #7A7A79",
"v	c #E5E5E4",
"w	c #7C7C7B",
"x	c #252525",
"y	c #353535",
"z	c #E3E3E3",
"A	c #757575",
"B	c #C2C2C2",
"C	c #CACACA",
"D	c #A4A4A4",
"E	c #D9D9D9",
"F	c #878786",
"G	c #727271",
"H	c #888887",
"I	c #A3A3A3",
"J	c #DFDFDF",
"K	c #A7A7A7",
"L	c #777777",
"M	c #6D6D6D",
"N	c #A9A9A9",
"O	c #242424",
"P	c #9A9A9A",
"Q	c #E1E1E1",
"R	c #DEDEDE",
"S	c #232323",
"T	c #838383",
"U	c #B4B4B4",
"V	c #222222",
"....................",
"++++++++++++++++++++",
"@@@@@@@@@@@@@@@@@@@@",
"@@@@@@@@@@@@@@@@@@@@",
"####################",
"######$%&**&%=######",
"----@;>,,'',,>;@----",
"---)!,'~{]]{~>,!@---",
"^^^/,(_::::::<(,[^^^",
"}}|112333443332115}}",
"}}6,78888,,88887,6}}",
"}}9,0aaaabbaaaa[,c}}",
"dd,,efghhhhhhife,,dd",
"dd,,jklbbbbbbmkj,,dd",
"nnc,opppphhppppq,rnn",
"nns,tuuuuvhwuuut,snn",
"xxy1z8AAABCAAA%11yxx",
"xxxD,EFGGGGGGHE,Ixxx",
"xxxdt,JKLMMLN',tnxxx",
"OOOOnPQ,,RR,,'PnOOOO",
"SSSSSS@TUCCUT@SSSSSS",
"SSSSSSSSSSSSSSSSSSSS",
"VVVVVVVVVVVVVVVVVVVV",
"VVVVVVVVVVVVVVVVVVVV",
"...................."};
