/* XPM */
static char * close_pressed_xpm[] = {
"20 25 53 1",
" 	c None",
".	c #212121",
"+	c #3D3D3D",
"@	c #2C2C2C",
"#	c #2B2B2B",
"$	c #2A2A2A",
"%	c #E7E7E7",
"&	c #E6E6E6",
"*	c #A5A5A5",
"=	c #292929",
"-	c #A3A3A3",
";	c #5E5E5E",
">	c #A3A3A4",
",	c #282828",
"'	c #A1A1A2",
")	c #B8B8B8",
"!	c #C2C2C2",
"~	c #A1A1A1",
"{	c #A0A0A0",
"]	c #CBCBCB",
"^	c #9E9F9E",
"/	c #9E9E9E",
"(	c #CDCDCD",
"_	c #9E9E9F",
":	c #272727",
"<	c #9C9C9D",
"[	c #9D9D9C",
"}	c #9C9D9C",
"|	c #9C9D9D",
"1	c #9C9B9C",
"2	c #9C9C9B",
"3	c #9B9C9B",
"4	c #9C9C9C",
"5	c #9B9B9C",
"6	c #262626",
"7	c #9A999A",
"8	c #999A99",
"9	c #9A9999",
"0	c #989898",
"a	c #252525",
"b	c #969796",
"c	c #979797",
"d	c #969696",
"e	c #959595",
"f	c #959495",
"g	c #949494",
"h	c #939493",
"i	c #949493",
"j	c #939494",
"k	c #939394",
"l	c #242424",
"m	c #232323",
"n	c #222222",
"....................",
"++++++++++++++++++++",
"@@@@@@@@@@@@@@@@@@@@",
"@@@@@@@@@@@@@@@@@@@@",
"####################",
"####################",
"$$$%%%%%%%%%%%%%%$$$",
"$$$&************&$$$",
"===&-;;;-->-;;;-&===",
",,,&';)!;~';!);~&,,,",
",,,&{;!&];;]&!;{&,,,",
",,,&^/;]&((&];/_&,,,",
":::&<[};(&&(;|[<&:::",
":::&123;(&&(;345&:::",
"666&78;]&((&];79&666",
"666&0;!&];;]&!;0&666",
"aaa&b;)!;bc;!);d&aaa",
"aaa&e;;;feee;;;e&aaa",
"aaa&ghgigggjgghk&aaa",
"lll%%%%%%%%%%%%%%lll",
"mmmmmmmmmmmmmmmmmmmm",
"mmmmmmmmmmmmmmmmmmmm",
"nnnnnnnnnnnnnnnnnnnn",
"nnnnnnnnnnnnnnnnnnnn",
"...................."};
