/* XPM */
static char * close_pressed_xpm[] = {
"20 25 94 2",
"  	c None",
". 	c #212121",
"+ 	c #3D3D3D",
"@ 	c #2C2C2C",
"# 	c #2B2B2B",
"$ 	c #787878",
"% 	c #AFAFAF",
"& 	c #C7C7C7",
"* 	c #3C3C3C",
"= 	c #2A2A2A",
"- 	c #2E2E2E",
"; 	c #8F8F8F",
"> 	c #E1E1E1",
", 	c #E6E6E6",
"' 	c #DFDFDF",
") 	c #313131",
"! 	c #B8B8B8",
"~ 	c #B3B3B3",
"{ 	c #8C8C8C",
"] 	c #858585",
"^ 	c #303030",
"/ 	c #292929",
"( 	c #9B9B9B",
"_ 	c #DEDEDE",
": 	c #ABABAA",
"< 	c #9D9D9D",
"[ 	c #818180",
"} 	c #AAAAA9",
"| 	c #989898",
"1 	c #282828",
"2 	c #4A4A4A",
"3 	c #E4E4E4",
"4 	c #A9A9A9",
"5 	c #CCCCCC",
"6 	c #D1D1D1",
"7 	c #9A9A9A",
"8 	c #7C7C7C",
"9 	c #E3E3E3",
"0 	c #494949",
"a 	c #A1A1A1",
"b 	c #BDBDBD",
"c 	c #D6D6D6",
"d 	c #A0A0A0",
"e 	c #DADADA",
"f 	c #979797",
"g 	c #757575",
"h 	c #969696",
"i 	c #D7D7D7",
"j 	c #E7E7E7",
"k 	c #D8D8D8",
"l 	c #999999",
"m 	c #D9D9D9",
"n 	c #272727",
"o 	c #868685",
"p 	c #717170",
"q 	c #939392",
"r 	c #D8D8D6",
"s 	c #E7E7E6",
"t 	c #828282",
"u 	c #6C6C6C",
"v 	c #909090",
"w 	c #262626",
"x 	c #8F8F8E",
"y 	c #686868",
"z 	c #8D8D8D",
"A 	c #D5D5D4",
"B 	c #91918F",
"C 	c #9F9F9F",
"D 	c #B5B5B5",
"E 	c #8B8B8A",
"F 	c #CFCFCE",
"G 	c #252525",
"H 	c #474747",
"I 	c #CECECE",
"J 	c #888888",
"K 	c #606060",
"L 	c #9C9C9C",
"M 	c #464646",
"N 	c #DBDBDB",
"O 	c #979796",
"P 	c #858584",
"Q 	c #5C5C5B",
"R 	c #B6B6B6",
"S 	c #626262",
"T 	c #575757",
"U 	c #242424",
"V 	c #E0E0E0",
"W 	c #DDDDDD",
"X 	c #232323",
"Y 	c #343434",
"Z 	c #717171",
"` 	c #ABABAB",
" .	c #C5C5C5",
"..	c #222222",
". . . . . . . . . . . . . . . . . . . . ",
"+ + + + + + + + + + + + + + + + + + + + ",
"@ @ @ @ @ @ @ @ @ @ @ @ @ @ @ @ @ @ @ @ ",
"@ @ @ @ @ @ @ @ @ @ @ @ @ @ @ @ @ @ @ @ ",
"# # # # # # # # # # # # # # # # # # # # ",
"# # # # # # + $ % & & % $ * # # # # # # ",
"= = = = - ; > , , ' ' , , > ; - = = = = ",
"= = = ) ! , ' ~ { ] ] { ~ > , ! ^ = = = ",
"/ / / ( , _ : < [ [ [ [ < } _ , | / / / ",
"1 1 2 3 3 4 5 6 7 8 8 7 6 5 4 9 3 0 1 1 ",
"1 1 a , b | 6 , c | | c , 6 | b , d 1 1 ",
"1 1 e , f g h i j k k j i h g l , m 1 1 ",
"n n , , o p p q r s s r q p p o , , n n ",
"n n , , t u u v i j j i v u u t , , n n ",
"w w m , x y z A s c c s A z y B , k w w ",
"w w C , D E F s A E E A s F E D , C w w ",
"G G H 3 9 ( & I J K K J I & L 9 9 M G G ",
"G G G | , N O P Q Q Q Q P O N , f G G G ",
"G G G = R , _ L S T T S < ' , R / G G G ",
"U U U U 1 { V , , W W , , ' { 1 U U U U ",
"X X X X X X Y Z `  . .` Z Y X X X X X X ",
"X X X X X X X X X X X X X X X X X X X X ",
"........................................",
"........................................",
". . . . . . . . . . . . . . . . . . . . "};
