/* XPM */
static char * close_prelight_xpm[] = {
"20 25 75 1",
" 	c None",
".	c #212121",
"+	c #3D3D3D",
"@	c #2C2C2C",
"#	c #2B2B2B",
"$	c #787878",
"%	c #AFAFAF",
"&	c #C7C7C7",
"*	c #3C3C3C",
"=	c #2A2A2A",
"-	c #2E2E2E",
";	c #8F8F8F",
">	c #E1E1E1",
",	c #E6E6E6",
"'	c #D9D9D9",
")	c #313131",
"!	c #B8B8B8",
"~	c #DCDCDC",
"{	c #838383",
"]	c #363636",
"^	c #373737",
"/	c #848484",
"(	c #DDDDDD",
"_	c #303030",
":	c #292929",
"<	c #9B9B9B",
"[	c #D2D2D2",
"}	c #575757",
"|	c #585858",
"1	c #D3D3D3",
"2	c #989898",
"3	c #282828",
"4	c #4A4A4A",
"5	c #E4E4E4",
"6	c #E0E0E0",
"7	c #5B5B5B",
"8	c #C2C2C2",
"9	c #2F2F2F",
"0	c #494949",
"a	c #A1A1A1",
"b	c #9D9D9D",
"c	c #CBCBCB",
"d	c #9E9E9E",
"e	c #A0A0A0",
"f	c #DADADA",
"g	c #616161",
"h	c #CDCDCD",
"i	c #636363",
"j	c #272727",
"k	c #484848",
"l	c #262626",
"m	c #606060",
"n	c #626262",
"o	c #D8D8D8",
"p	c #9F9F9F",
"q	c #252525",
"r	c #474747",
"s	c #5E5E5E",
"t	c #E3E3E3",
"u	c #464646",
"v	c #595959",
"w	c #979797",
"x	c #B6B6B6",
"y	c #828282",
"z	c #333333",
"A	c #DEDEDE",
"B	c #242424",
"C	c #8C8C8C",
"D	c #DFDFDF",
"E	c #232323",
"F	c #343434",
"G	c #717171",
"H	c #ABABAB",
"I	c #C5C5C5",
"J	c #222222",
"....................",
"++++++++++++++++++++",
"@@@@@@@@@@@@@@@@@@@@",
"@@@@@@@@@@@@@@@@@@@@",
"####################",
"######+$%&&%$*######",
"====-;>,,'',,>;-====",
"===)!,~{]==^/(,!_===",
":::<,[}]::::]|1,2:::",
"334567!8_3398!7>5033",
"33a,b]8,c_9c,8]d,e33",
"33f,g39c,hh,c_3i,'33",
"jj,,0jj9h,,h_jj0,,jj",
"jj,,0jj_h,,h9jjk,,jj",
"ll',ml_c,hh,c9ln,oll",
"llp,b]8,c9_c,8]b,pll",
"qqr567!89qq_8!s>tuqq",
"qqq2,1v]qqqq]|1,wqqq",
"qqq=x,(yzqqz/A,x:qqq",
"BBBB3C6,,'',,DC3BBBB",
"EEEEEEFGHIIHGFEEEEEE",
"EEEEEEEEEEEEEEEEEEEE",
"JJJJJJJJJJJJJJJJJJJJ",
"JJJJJJJJJJJJJJJJJJJJ",
"...................."};
