/* XPM */
static char * hide_prelight_xpm[] = {
"20 25 72 1",
" 	c None",
".	c #212121",
"+	c #3D3D3D",
"@	c #2C2C2C",
"#	c #2B2B2B",
"$	c #787878",
"%	c #AFAFAF",
"&	c #C7C7C7",
"*	c #3C3C3C",
"=	c #2A2A2A",
"-	c #2E2E2E",
";	c #8F8F8F",
">	c #E1E1E1",
",	c #E6E6E6",
"'	c #D9D9D9",
")	c #313131",
"!	c #B8B8B8",
"~	c #DCDCDC",
"{	c #838383",
"]	c #363636",
"^	c #373737",
"/	c #848484",
"(	c #DDDDDD",
"_	c #303030",
":	c #292929",
"<	c #9B9B9B",
"[	c #D1D1D1",
"}	c #4A4A4A",
"|	c #989898",
"1	c #282828",
"2	c #E4E4E4",
"3	c #E0E0E0",
"4	c #4D4D4D",
"5	c #4E4E4E",
"6	c #494949",
"7	c #A1A1A1",
"8	c #9D9D9D",
"9	c #9E9E9E",
"0	c #A0A0A0",
"a	c #DADADA",
"b	c #616161",
"c	c #636363",
"d	c #272727",
"e	c #484848",
"f	c #262626",
"g	c #606060",
"h	c #B7B7B7",
"i	c #BCBCBC",
"j	c #626262",
"k	c #D8D8D8",
"l	c #9F9F9F",
"m	c #B6B6B6",
"n	c #B2B2B2",
"o	c #252525",
"p	c #474747",
"q	c #555555",
"r	c #565656",
"s	c #E3E3E3",
"t	c #464646",
"u	c #979797",
"v	c #828282",
"w	c #333333",
"x	c #DEDEDE",
"y	c #242424",
"z	c #8C8C8C",
"A	c #DFDFDF",
"B	c #232323",
"C	c #343434",
"D	c #717171",
"E	c #ABABAB",
"F	c #C5C5C5",
"G	c #222222",
"....................",
"++++++++++++++++++++",
"@@@@@@@@@@@@@@@@@@@@",
"@@@@@@@@@@@@@@@@@@@@",
"####################",
"######+$%&&%$*######",
"====-;>,,'',,>;-====",
"===)!,~{]==^/(,!_===",
":::<,[}::::::}[,|:::",
"11}234111111115>2611",
"117,811111111119,011",
"11a,b1111111111c,'11",
"dd,,6dddddddddd6,,dd",
"dd,,6__________e,,dd",
"ff',g_h,,,,,,i_j,kff",
"ffl,8_m,,,,,,n_8,lff",
"oop23q________r>stoo",
"ooo|,[eooooooe[,uooo",
"ooo=m,(vwoow/x,m:ooo",
"yyyy1z3,,'',,Az1yyyy",
"BBBBBBCDEFFEDCBBBBBB",
"BBBBBBBBBBBBBBBBBBBB",
"GGGGGGGGGGGGGGGGGGGG",
"GGGGGGGGGGGGGGGGGGGG",
"...................."};
