/* XPM */
static char * hide_pressed_xpm[] = {
"20 25 57 1",
" 	c None",
".	c #212121",
"+	c #3D3D3D",
"@	c #2C2C2C",
"#	c #2B2B2B",
"$	c #2A2A2A",
"%	c #E7E7E7",
"&	c #E6E6E6",
"*	c #A5A5A5",
"=	c #292929",
"-	c #A3A3A3",
";	c #A3A4A3",
">	c #A3A3A4",
",	c #282828",
"'	c #A1A1A2",
")	c #A1A1A1",
"!	c #A1A2A1",
"~	c #A0A0A0",
"{	c #9E9F9E",
"]	c #9E9E9E",
"^	c #9F9F9F",
"/	c #9F9E9E",
"(	c #9E9E9F",
"_	c #272727",
":	c #9C9C9D",
"<	c #9D9D9C",
"[	c #9C9D9C",
"}	c #9C9C9C",
"|	c #9C9D9D",
"1	c #9D9C9C",
"2	c #9C9B9C",
"3	c #5E5E5E",
"4	c #9B9B9C",
"5	c #262626",
"6	c #9A999A",
"7	c #B7B7B7",
"8	c #BCBCBC",
"9	c #9A9999",
"0	c #989898",
"a	c #B6B6B6",
"b	c #B2B2B2",
"c	c #252525",
"d	c #969796",
"e	c #969696",
"f	c #959595",
"g	c #959594",
"h	c #949595",
"i	c #959495",
"j	c #949594",
"k	c #949494",
"l	c #939493",
"m	c #949493",
"n	c #939494",
"o	c #939394",
"p	c #242424",
"q	c #232323",
"r	c #222222",
"....................",
"++++++++++++++++++++",
"@@@@@@@@@@@@@@@@@@@@",
"@@@@@@@@@@@@@@@@@@@@",
"####################",
"####################",
"$$$%%%%%%%%%%%%%%$$$",
"$$$&************&$$$",
"===&-;---->-----&===",
",,,&''))')'')!))&,,,",
",,,&~~~~~~~~~~~~&,,,",
",,,&{]{^/]{](]](&,,,",
"___&:<[}}[|1}|<:&___",
"___&233333333334&___",
"555&637&&&&&&839&555",
"555&03a&&&&&&b30&555",
"ccc&d3333333333e&ccc",
"ccc&fghfifffifjf&ccc",
"ccc&klkmkkknkklo&ccc",
"ppp%%%%%%%%%%%%%%ppp",
"qqqqqqqqqqqqqqqqqqqq",
"qqqqqqqqqqqqqqqqqqqq",
"rrrrrrrrrrrrrrrrrrrr",
"rrrrrrrrrrrrrrrrrrrr",
"...................."};
