/* XPM */
static char * hide_pressed_xpm[] = {
"20 25 84 1",
" 	c None",
".	c #212121",
"+	c #3D3D3D",
"@	c #2C2C2C",
"#	c #2B2B2B",
"$	c #787878",
"%	c #AFAFAF",
"&	c #C7C7C7",
"*	c #3C3C3C",
"=	c #2A2A2A",
"-	c #2E2E2E",
";	c #8F8F8F",
">	c #E1E1E1",
",	c #E6E6E6",
"'	c #DFDFDF",
")	c #313131",
"!	c #B8B8B8",
"~	c #B3B3B3",
"{	c #8C8C8C",
"]	c #858585",
"^	c #303030",
"/	c #292929",
"(	c #9B9B9B",
"_	c #DBDBDB",
":	c #949492",
"<	c #818180",
"[	c #939392",
"}	c #989898",
"|	c #282828",
"1	c #4A4A4A",
"2	c #E4E4E4",
"3	c #919191",
"4	c #7C7C7C",
"5	c #E3E3E3",
"6	c #494949",
"7	c #A1A1A1",
"8	c #BDBDBD",
"9	c #A0A0A0",
"0	c #DADADA",
"a	c #979797",
"b	c #757575",
"c	c #999999",
"d	c #D9D9D9",
"e	c #272727",
"f	c #868685",
"g	c #717170",
"h	c #828282",
"i	c #909090",
"j	c #262626",
"k	c #8F8F8E",
"l	c #8D8D8D",
"m	c #C8C8C7",
"n	c #E7E7E6",
"o	c #CBCBCB",
"p	c #91918F",
"q	c #D8D8D8",
"r	c #9F9F9F",
"s	c #B5B5B5",
"t	c #8B8B8A",
"u	c #C7C7C6",
"v	c #C4C4C3",
"w	c #252525",
"x	c #474747",
"y	c #888888",
"z	c #9C9C9C",
"A	c #464646",
"B	c #D7D7D7",
"C	c #757574",
"D	c #5C5C5B",
"E	c #767675",
"F	c #B6B6B6",
"G	c #DEDEDE",
"H	c #626262",
"I	c #575757",
"J	c #9D9D9D",
"K	c #242424",
"L	c #E0E0E0",
"M	c #DDDDDD",
"N	c #232323",
"O	c #343434",
"P	c #717171",
"Q	c #ABABAB",
"R	c #C5C5C5",
"S	c #222222",
"....................",
"++++++++++++++++++++",
"@@@@@@@@@@@@@@@@@@@@",
"@@@@@@@@@@@@@@@@@@@@",
"####################",
"######+$%&&%$*######",
"====-;>,,'',,>;-====",
"===)!,'~{]]{~>,!^===",
"///(,_:<<<<<<[_,}///",
"||1223444444443526||",
"||7,8$$$$$$$$$$8,9||",
"||0,abbbbbbbbbbc,d||",
"ee,,fggggggggggf,,ee",
"ee,,hiiiiiiiiiih,,ee",
"jjd,klmnnnnnnolp,qjj",
"jjr,stunnnnnnvts,rjj",
"wwx25(yyyyyyyyz55Aww",
"www},BCDDDDDDEB,awww",
"www=F,GzHIIHJ',F/www",
"KKKK|{L,,MM,,'{|KKKK",
"NNNNNNOPQRRQPONNNNNN",
"NNNNNNNNNNNNNNNNNNNN",
"SSSSSSSSSSSSSSSSSSSS",
"SSSSSSSSSSSSSSSSSSSS",
"...................."};
