/* XPM */
static char * maximize_prelight_xpm[] = {
"20 25 21 1",
" 	c None",
".	c #212121",
"+	c #3D3D3D",
"@	c #2C2C2C",
"#	c #2B2B2B",
"$	c #2A2A2A",
"%	c #E7E7E7",
"&	c #E6E6E6",
"*	c #292929",
"=	c #303030",
"-	c #282828",
";	c #CDCDCD",
">	c #272727",
",	c #C2C2C2",
"'	c #B8B8B8",
")	c #262626",
"!	c #E2E2E2",
"~	c #252525",
"{	c #242424",
"]	c #232323",
"^	c #222222",
"....................",
"++++++++++++++++++++",
"@@@@@@@@@@@@@@@@@@@@",
"@@@@@@@@@@@@@@@@@@@@",
"####################",
"####################",
"$$$%%%%%%%%%%%%%%$$$",
"$$$&$$$$$$$$$$$$&$$$",
"***&****====****&***",
"---&----=;;=----&---",
"---&----=&&=----&---",
"---&-====&&====-&---",
">>>&>=,&&&&&&,=>&>>>",
">>>&>='&&&&&&'=>&>>>",
")))&)====&&====)&)))",
")))&))))=!&=))))&)))",
"~~~&~~~~=''=~~~~&~~~",
"~~~&~~~~====~~~~&~~~",
"~~~&~~~~~~~~~~~~&~~~",
"{{{%%%%%%%%%%%%%%{{{",
"]]]]]]]]]]]]]]]]]]]]",
"]]]]]]]]]]]]]]]]]]]]",
"^^^^^^^^^^^^^^^^^^^^",
"^^^^^^^^^^^^^^^^^^^^",
"...................."};
