/* XPM */
static char * maximize_prelight_xpm[] = {
"20 25 71 1",
" 	c None",
".	c #212121",
"+	c #3D3D3D",
"@	c #2C2C2C",
"#	c #2B2B2B",
"$	c #787878",
"%	c #AFAFAF",
"&	c #C7C7C7",
"*	c #3C3C3C",
"=	c #2A2A2A",
"-	c #2E2E2E",
";	c #8F8F8F",
">	c #E1E1E1",
",	c #E6E6E6",
"'	c #D9D9D9",
")	c #313131",
"!	c #B8B8B8",
"~	c #DCDCDC",
"{	c #838383",
"]	c #363636",
"^	c #373737",
"/	c #848484",
"(	c #DDDDDD",
"_	c #303030",
":	c #292929",
"<	c #9B9B9B",
"[	c #D1D1D1",
"}	c #4A4A4A",
"|	c #989898",
"1	c #282828",
"2	c #E4E4E4",
"3	c #E0E0E0",
"4	c #4D4D4D",
"5	c #CDCDCD",
"6	c #4E4E4E",
"7	c #494949",
"8	c #A1A1A1",
"9	c #9D9D9D",
"0	c #9E9E9E",
"a	c #A0A0A0",
"b	c #DADADA",
"c	c #616161",
"d	c #636363",
"e	c #272727",
"f	c #C2C2C2",
"g	c #484848",
"h	c #262626",
"i	c #606060",
"j	c #626262",
"k	c #D8D8D8",
"l	c #9F9F9F",
"m	c #E2E2E2",
"n	c #252525",
"o	c #474747",
"p	c #4C4C4C",
"q	c #E3E3E3",
"r	c #464646",
"s	c #979797",
"t	c #B6B6B6",
"u	c #828282",
"v	c #333333",
"w	c #DEDEDE",
"x	c #242424",
"y	c #8C8C8C",
"z	c #DFDFDF",
"A	c #232323",
"B	c #343434",
"C	c #717171",
"D	c #ABABAB",
"E	c #C5C5C5",
"F	c #222222",
"....................",
"++++++++++++++++++++",
"@@@@@@@@@@@@@@@@@@@@",
"@@@@@@@@@@@@@@@@@@@@",
"####################",
"######+$%&&%$*######",
"====-;>,,'',,>;-====",
"===)!,~{]==^/(,!_===",
":::<,[}:____:}[,|:::",
"11}23411_55_116>2711",
"118,9111_,,_1110,a11",
"11b,c____,,____d,'11",
"ee,,7_f,,,,,,f_7,,ee",
"ee,,7_!,,,,,,!_g,,ee",
"hh',i____,,____j,khh",
"hhl,9hhh_m,_hhh9,lhh",
"nno23pnn_!!_nn6>qrnn",
"nnn|,[gn____ng[,snnn",
"nnn=t,(uvnnv/w,t:nnn",
"xxxx1y3,,'',,zy1xxxx",
"AAAAAABCDEEDCBAAAAAA",
"AAAAAAAAAAAAAAAAAAAA",
"FFFFFFFFFFFFFFFFFFFF",
"FFFFFFFFFFFFFFFFFFFF",
"...................."};
