/* XPM */
static char * close_inactive_xpm[] = {
"20 25 21 1",
" 	c None",
".	c #212121",
"+	c #383838",
"@	c #2C2C2C",
"#	c #2B2B2B",
"$	c #2A2A2A",
"%	c #292929",
"&	c #282828",
"*	c #676767",
"=	c #797979",
"-	c #9B9B9B",
";	c #8C8C8C",
">	c #8E8E8E",
",	c #272727",
"'	c #262626",
")	c #767676",
"!	c #252525",
"~	c #616161",
"{	c #242424",
"]	c #232323",
"^	c #222222",
"....................",
"++++++++++++++++++++",
"@@@@@@@@@@@@@@@@@@@@",
"@@@@@@@@@@@@@@@@@@@@",
"####################",
"####################",
"$$$$$$$$$$$$$$$$$$$$",
"$$$$$$$$$$$$$$$$$$$$",
"%%%%%%%%%%%%%%%%%%%%",
"&&&&&&*=@&&@=*&&&&&&",
"&&&&&&=-;@@;-=&&&&&&",
"&&&&&&@;->>-;@&&&&&&",
",,,,,,,#>-->#,,,,,,,",
",,,,,,,#>-->#,,,,,,,",
"''''''$;->>-;$''''''",
"'''''')-;$$;-)''''''",
"!!!!!!~)%!!%)~!!!!!!",
"!!!!!!!!!!!!!!!!!!!!",
"!!!!!!!!!!!!!!!!!!!!",
"{{{{{{{{{{{{{{{{{{{{",
"]]]]]]]]]]]]]]]]]]]]",
"]]]]]]]]]]]]]]]]]]]]",
"^^^^^^^^^^^^^^^^^^^^",
"^^^^^^^^^^^^^^^^^^^^",
"...................."};
